ISO-10303-21;
HEADER;
FILE_DESCRIPTION (( 'STEP AP214' ),
    '1' );
FILE_NAME ('Zima2R uWave Max.STEP',
    '2026-08-18T11:00:06',
    ( '' ),
    ( '' ),
    'SwSTEP 2.0',
    'SolidWorks 2021',
    '' );
FILE_SCHEMA (( 'AUTOMOTIVE_DESIGN' ));
ENDSEC;

DATA;
#1 = FACE_OUTER_BOUND ( 'NONE', #121, .T. ) ;
#2 = CIRCLE ( 'NONE', #244, 31.99999999999418065 ) ;
#3 = PRODUCT_DEFINITION_SHAPE ( 'NONE', 'NONE',  #526 ) ;
#4 = CARTESIAN_POINT ( 'NONE',  ( 0.000000000000000000, 7.045576740875851840, 0.000000000000000000 ) ) ;
#5 = VECTOR ( 'NONE', #164, 1000.000000000000000 ) ;
#6 = ADVANCED_FACE ( 'NONE', ( #787 ), #56, .T. ) ;
#7 = CARTESIAN_POINT ( 'NONE',  ( 0.000000000000000000, 200.0000000000000000, -2.750000000000000000 ) ) ;
#8 = DIRECTION ( 'NONE',  ( -0.000000000000000000, -1.000000000000000000, -0.000000000000000000 ) ) ;
#9 = SURFACE_STYLE_FILL_AREA ( #785 ) ;
#10 = DIRECTION ( 'NONE',  ( 0.000000000000000000, 0.000000000000000000, -1.000000000000000000 ) ) ;
#11 = ADVANCED_FACE ( 'NONE', ( #498 ), #710, .F. ) ;
#12 = ORIENTED_EDGE ( 'NONE', *, *, #375, .F. ) ;
#13 = CARTESIAN_POINT ( 'NONE',  ( 0.000000000000000000, 0.000000000000000000, -28.99999999999389289 ) ) ;
#14 = MECHANICAL_DESIGN_GEOMETRIC_PRESENTATION_REPRESENTATION (  '', ( #849 ), #901 ) ;
#15 = CARTESIAN_POINT ( 'NONE',  ( 3.918869757270816344E-15, 0.000000000000000000, 31.99999999999417355 ) ) ;
#16 = EDGE_LOOP ( 'NONE', ( #744, #196 ) ) ;
#17 = EDGE_CURVE ( 'NONE', #843, #696, #383, .T. ) ;
#18 = DIRECTION ( 'NONE',  ( 0.4587639463881181823, -1.412851513175753749E-14, 0.8885581812658075451 ) ) ;
#19 = EDGE_CURVE ( 'NONE', #472, #739, #110, .T. ) ;
#20 = AXIS2_PLACEMENT_3D ( 'NONE', #312, #610, #746 ) ;
#21 = CARTESIAN_POINT ( 'NONE',  ( 5.702332427227689028E-16, -4.562861884277012738E-16, 3.750000000000009326 ) ) ;
#22 = CONICAL_SURFACE ( 'NONE', #155, 29.52094453299467958, 1.396263401595463360 ) ;
#23 = CARTESIAN_POINT ( 'NONE',  ( 0.000000000000000000, 7.045576740875851840, 0.000000000000000000 ) ) ;
#24 = ORIENTED_EDGE ( 'NONE', *, *, #65, .F. ) ;
#25 = CARTESIAN_POINT ( 'NONE',  ( 0.000000000000000000, 9.999999999912304816, 0.000000000000000000 ) ) ;
#26 = DIRECTION ( 'NONE',  ( 0.000000000000000000, 0.000000000000000000, -1.000000000000000000 ) ) ;
#27 = ORIENTED_EDGE ( 'NONE', *, *, #194, .F. ) ;
#28 = PRESENTATION_STYLE_ASSIGNMENT (( #530 ) ) ;
#29 = EDGE_CURVE ( 'NONE', #843, #372, #285, .T. ) ;
#30 = FACE_OUTER_BOUND ( 'NONE', #776, .T. ) ;
#31 = CARTESIAN_POINT ( 'NONE',  ( 0.000000000000000000, 0.000000000000000000, 0.000000000000000000 ) ) ;
#32 = VERTEX_POINT ( 'NONE', #216 ) ;
#33 = SHAPE_REPRESENTATION_RELATIONSHIP ( 'NONE' , 'NONE' ,  #811, #707 ) ;
#34 = CARTESIAN_POINT ( 'NONE',  ( 0.000000000000000000, 23.99999999992637711, -28.99999999999417710 ) ) ;
#35 =( REPRESENTATION_RELATIONSHIP ('NONE','NONE', #531, #400 ) REPRESENTATION_RELATIONSHIP_WITH_TRANSFORMATION ( #820 )SHAPE_REPRESENTATION_RELATIONSHIP( ) );
#36 = APPLICATION_PROTOCOL_DEFINITION ( 'draft international standard', 'automotive_design', 1998, #812 ) ;
#37 = AXIS2_PLACEMENT_3D ( 'NONE', #841, #60, #711 ) ;
#38 = AXIS2_PLACEMENT_3D ( 'NONE', #93, #286, #574 ) ;
#39 = ORIENTED_EDGE ( 'NONE', *, *, #476, .T. ) ;
#40 = DIRECTION ( 'NONE',  ( 0.000000000000000000, 0.000000000000000000, 1.000000000000000000 ) ) ;
#41 = DIRECTION ( 'NONE',  ( -0.000000000000000000, -1.000000000000000000, -0.000000000000000000 ) ) ;
#42 =( NAMED_UNIT ( * ) SI_UNIT ( $, .STERADIAN. ) SOLID_ANGLE_UNIT ( ) );
#43 = CARTESIAN_POINT ( 'NONE',  ( 3.591494794706676430, 4.684522207058252619, 15.72732135199886017 ) ) ;
#44 = ORIENTED_EDGE ( 'NONE', *, *, #365, .T. ) ;
#45 = PLANE ( 'NONE',  #254 ) ;
#46 = LINE ( 'NONE', #907, #277 ) ;
#47 = AXIS2_PLACEMENT_3D ( 'NONE', #450, #883, #169 ) ;
#48 = APPLICATION_CONTEXT ( 'automotive_design' ) ;
#49 = CARTESIAN_POINT ( 'NONE',  ( 2.991295773228584753, 4.775019620747664284, 16.37478972552331058 ) ) ;
#50 = ORIENTED_EDGE ( 'NONE', *, *, #672, .T. ) ;
#51 = CARTESIAN_POINT ( 'NONE',  ( -4.360880614125465904, 4.450683663256756795, 14.14842809446219185 ) ) ;
#52 = EDGE_CURVE ( 'NONE', #472, #235, #653, .T. ) ;
#53 = CIRCLE ( 'NONE', #458, 1.999999999978998577 ) ;
#54 = CARTESIAN_POINT ( 'NONE',  ( 3.406343370138165128, 4.716668264557945633, 15.95531401701218499 ) ) ;
#55 = EDGE_LOOP ( 'NONE', ( #638, #165, #520, #657 ) ) ;
#56 = TOROIDAL_SURFACE ( 'NONE', #873, 3.750000000000009326, 1.999999999978998577 ) ;
#57 = EDGE_CURVE ( 'NONE', #524, #32, #232, .T. ) ;
#58 = LINE ( 'NONE', #743, #445 ) ;
#59 = CARTESIAN_POINT ( 'NONE',  ( -0.5909924733513278738, 3.346935242063397986, 8.529145353897243709 ) ) ;
#60 = DIRECTION ( 'NONE',  ( -0.000000000000000000, -1.000000000000000000, -0.000000000000000000 ) ) ;
#61 = ADVANCED_FACE ( 'NONE', ( #1 ), #494, .T. ) ;
#62 = ORIENTED_EDGE ( 'NONE', *, *, #52, .F. ) ;
#63 = CARTESIAN_POINT ( 'NONE',  ( 5.534630581910216092E-17, 4.925959886108967289, 17.50000000000000000 ) ) ;
#64 = DIRECTION ( 'NONE',  ( -1.000000000000000000, 0.000000000000000000, 0.000000000000000000 ) ) ;
#65 = EDGE_CURVE ( 'NONE', #235, #105, #369, .T. ) ;
#66 = CARTESIAN_POINT ( 'NONE',  ( 0.000000000000000000, 20.99999999992638067, 0.000000000000000000 ) ) ;
#67 = AXIS2_PLACEMENT_3D ( 'NONE', #245, #265, #104 ) ;
#68 = DIRECTION ( 'NONE',  ( -0.000000000000000000, -1.000000000000000000, -0.000000000000000000 ) ) ;
#69 =( LENGTH_UNIT ( ) NAMED_UNIT ( * ) SI_UNIT ( .MILLI., .METRE. ) );
#70 = AXIS2_PLACEMENT_3D ( 'NONE', #720, #863, #724 ) ;
#71 = CARTESIAN_POINT ( 'NONE',  ( 0.000000000000000000, 23.99999999992637711, 0.000000000000000000 ) ) ;
#72 = EDGE_LOOP ( 'NONE', ( #12, #537, #177, #502, #729, #549 ) ) ;
#73 = DIRECTION ( 'NONE',  ( -1.000000000000000000, 0.000000000000000000, 0.000000000000000000 ) ) ;
#74 = EDGE_CURVE ( 'NONE', #126, #914, #719, .T. ) ;
#75 = CARTESIAN_POINT ( 'NONE',  ( 0.000000000000000000, 8.000000000000000000, 13.00000000000000000 ) ) ;
#76 = DIRECTION ( 'NONE',  ( -0.000000000000000000, -1.000000000000000000, -0.000000000000000000 ) ) ;
#77 = DIRECTION ( 'NONE',  ( 0.000000000000000000, 1.000000000000000000, 0.000000000000000000 ) ) ;
#78 = CARTESIAN_POINT ( 'NONE',  ( 0.000000000000000000, 8.000000000000000000, -2.500000000000009326 ) ) ;
#79 = CARTESIAN_POINT ( 'NONE',  ( 3.551475717526576189E-15, 0.000000000000000000, 28.99999999999389289 ) ) ;
#80 = AXIS2_PLACEMENT_3D ( 'NONE', #115, #668, #727 ) ;
#81 = EDGE_CURVE ( 'NONE', #105, #235, #675, .T. ) ;
#82 = EDGE_LOOP ( 'NONE', ( #191, #293, #618, #852 ) ) ;
#83 = DIRECTION ( 'NONE',  ( 0.000000000000000000, 1.000000000000000000, 0.000000000000000000 ) ) ;
#84 = LINE ( 'NONE', #376, #185 ) ;
#85 = ORIENTED_EDGE ( 'NONE', *, *, #486, .T. ) ;
#86 = DIRECTION ( 'NONE',  ( 0.000000000000000000, 0.000000000000000000, -1.000000000000000000 ) ) ;
#87 = DIRECTION ( 'NONE',  ( 0.000000000000000000, 0.000000000000000000, -1.000000000000000000 ) ) ;
#88 = CARTESIAN_POINT ( 'NONE',  ( 3.061616997868393988E-16, -3.061616997868437868E-16, 2.500000000000009326 ) ) ;
#89 = ORIENTED_EDGE ( 'NONE', *, *, #402, .T. ) ;
#90 = FILL_AREA_STYLE ('',( #730 ) ) ;
#91 = AXIS2_PLACEMENT_3D ( 'NONE', #167, #384, #659 ) ;
#92 = DIRECTION ( 'NONE',  ( 0.000000000000000000, 0.000000000000000000, -1.000000000000000000 ) ) ;
#93 = CARTESIAN_POINT ( 'NONE',  ( 0.000000000000000000, 57.99999999992627409, 0.000000000000000000 ) ) ;
#94 = CIRCLE ( 'NONE', #624, 29.52094453299467958 ) ;
#95 = DIRECTION ( 'NONE',  ( 0.000000000000000000, 0.000000000000000000, -1.000000000000000000 ) ) ;
#96 = EDGE_CURVE ( 'NONE', #105, #459, #144, .T. ) ;
#97 = EDGE_LOOP ( 'NONE', ( #628, #674 ) ) ;
#98 = ADVANCED_FACE ( 'NONE', ( #99 ), #291, .T. ) ;
#99 = FACE_OUTER_BOUND ( 'NONE', #327, .T. ) ;
#100 = ORIENTED_EDGE ( 'NONE', *, *, #428, .F. ) ;
#101 =( LENGTH_UNIT ( ) NAMED_UNIT ( * ) SI_UNIT ( .MILLI., .METRE. ) );
#102 = FACE_OUTER_BOUND ( 'NONE', #449, .T. ) ;
#103 = DIRECTION ( 'NONE',  ( 1.000000000000000000, 0.000000000000000000, 0.000000000000000000 ) ) ;
#104 = DIRECTION ( 'NONE',  ( 0.000000000000000000, 0.000000000000000000, -1.000000000000000000 ) ) ;
#105 = VERTEX_POINT ( 'NONE', #801 ) ;
#106 = CARTESIAN_POINT ( 'NONE',  ( 0.000000000000000000, 0.000000000000000000, -31.99999999999417355 ) ) ;
#107 = PRODUCT_CONTEXT ( 'NONE', #860, 'mechanical' ) ;
#108 = VECTOR ( 'NONE', #41, 1000.000000000000000 ) ;
#109 = DIRECTION ( 'NONE',  ( -0.000000000000000000, -1.000000000000000000, -0.000000000000000000 ) ) ;
#110 = CIRCLE ( 'NONE', #303, 28.99999999999388933 ) ;
#111 = CARTESIAN_POINT ( 'NONE',  ( 1.175341581517211020, 4.906762621371804300, 17.35382369589808960 ) ) ;
#112 = ORIENTED_EDGE ( 'NONE', *, *, #868, .T. ) ;
#113 = CARTESIAN_POINT ( 'NONE',  ( -2.758841474380262504, 4.801380072427765988, 16.56748118135103098 ) ) ;
#114 = CARTESIAN_POINT ( 'NONE',  ( 0.000000000000000000, 1.154763476506485809, 0.000000000000000000 ) ) ;
#115 = CARTESIAN_POINT ( 'NONE',  ( 0.000000000000000000, 2.970360041809066765, 0.000000000000000000 ) ) ;
#116 = ADVANCED_FACE ( 'NONE', ( #721 ), #766, .T. ) ;
#117 = ORIENTED_EDGE ( 'NONE', *, *, #190, .T. ) ;
#118 = CARTESIAN_POINT ( 'NONE',  ( -3.907333316689299618, 3.856858918042841200, 10.74889468820790661 ) ) ;
#119 = CYLINDRICAL_SURFACE ( 'NONE', #755, 2.500000000000009326 ) ;
#120 = CARTESIAN_POINT ( 'NONE',  ( 3.551475717526610899E-15, 23.99999999992637711, 28.99999999999417710 ) ) ;
#121 = EDGE_LOOP ( 'NONE', ( #174, #568, #757, #534 ) ) ;
#122 = CARTESIAN_POINT ( 'NONE',  ( 3.367778697655221012E-16, 200.0000000000000000, 2.750000000000000000 ) ) ;
#123 = UNCERTAINTY_MEASURE_WITH_UNIT (LENGTH_MEASURE( 1.000000000000000082E-05 ), #209, 'distance_accuracy_value', 'NONE');
#124 = VECTOR ( 'NONE', #298, 1000.000000000000000 ) ;
#125 = CARTESIAN_POINT ( 'NONE',  ( 2.010851941892958905, 4.864711586281785571, 17.03675616302037810 ) ) ;
#126 = VERTEX_POINT ( 'NONE', #78 ) ;
#127 = CARTESIAN_POINT ( 'NONE',  ( 6.523256739204952073E-15, 3.339017059732752202, 8.499999999999896971 ) ) ;
#128 = AXIS2_PLACEMENT_3D ( 'NONE', #289, #578, #858 ) ;
#129 = AXIS2_PLACEMENT_3D ( 'NONE', #385, #306, #599 ) ;
#130 = DIRECTION ( 'NONE',  ( 0.000000000000000000, 0.000000000000000000, -1.000000000000000000 ) ) ;
#131 = CARTESIAN_POINT ( 'NONE',  ( 0.000000000000000000, 1.999999999978997245, -3.750000000000009326 ) ) ;
#132 = LINE ( 'NONE', #315, #651 ) ;
#133 = CARTESIAN_POINT ( 'NONE',  ( 2.981686182776075889, 3.615421403465909123, 9.616814644445947025 ) ) ;
#134 = ORIENTED_EDGE ( 'NONE', *, *, #65, .T. ) ;
#135 = CARTESIAN_POINT ( 'NONE',  ( -4.473118037594582042, 4.359880525309279165, 13.57217291140998583 ) ) ;
#136 = CARTESIAN_POINT ( 'NONE',  ( -3.750000000000009326, -3.812239441072725303E-16, 0.000000000000000000 ) ) ;
#137 = ORIENTED_EDGE ( 'NONE', *, *, #672, .F. ) ;
#138 = SURFACE_SIDE_STYLE ('',( #9 ) ) ;
#139 = FACE_OUTER_BOUND ( 'NONE', #82, .T. ) ;
#140 = ADVANCED_FACE ( 'NONE', ( #513 ), #364, .T. ) ;
#141 = EDGE_CURVE ( 'NONE', #910, #32, #442, .T. ) ;
#142 = ORIENTED_EDGE ( 'NONE', *, *, #150, .F. ) ;
#143 = AXIS2_PLACEMENT_3D ( 'NONE', #34, #392, #40 ) ;
#144 = CIRCLE ( 'NONE', #650, 2.999999999999905409 ) ;
#145 = CIRCLE ( 'NONE', #532, 31.99999999999417355 ) ;
#146 = ORIENTED_EDGE ( 'NONE', *, *, #862, .F. ) ;
#147 = CARTESIAN_POINT ( 'NONE',  ( 0.000000000000000000, 0.000000000000000000, 0.000000000000000000 ) ) ;
#148 = DIRECTION ( 'NONE',  ( -0.000000000000000000, -1.000000000000000000, -0.000000000000000000 ) ) ;
#149 = DIRECTION ( 'NONE',  ( 0.000000000000000000, 0.000000000000000000, -1.000000000000000000 ) ) ;
#150 = EDGE_CURVE ( 'NONE', #459, #770, #94, .T. ) ;
#151 = DIRECTION ( 'NONE',  ( -0.000000000000000000, -1.000000000000000000, -0.000000000000000000 ) ) ;
#152 = DIRECTION ( 'NONE',  ( -0.000000000000000000, -1.000000000000000000, -0.000000000000000000 ) ) ;
#153 = AXIS2_PLACEMENT_3D ( 'NONE', #120, #466, #792 ) ;
#154 = EDGE_LOOP ( 'NONE', ( #311, #542, #377, #212 ) ) ;
#155 = AXIS2_PLACEMENT_3D ( 'NONE', #714, #77, #362 ) ;
#156 = DIRECTION ( 'NONE',  ( -0.000000000000000000, -1.000000000000000000, -0.000000000000000000 ) ) ;
#157 = ADVANCED_FACE ( 'NONE', ( #587 ), #855, .T. ) ;
#158 = CIRCLE ( 'NONE', #591, 3.750000000000009326 ) ;
#159 = CARTESIAN_POINT ( 'NONE',  ( 6.523256739204952073E-15, 3.339017059732752202, 8.499999999999896971 ) ) ;
#160 = DIRECTION ( 'NONE',  ( 0.000000000000000000, 0.000000000000000000, 1.000000000000000000 ) ) ;
#161 = VERTEX_POINT ( 'NONE', #649 ) ;
#162 = APPLICATION_CONTEXT ( 'automotive_design' ) ;
#163 = CARTESIAN_POINT ( 'NONE',  ( 0.000000000000000000, 20.99999999992638067, 0.000000000000000000 ) ) ;
#164 = DIRECTION ( 'NONE',  ( -0.000000000000000000, -1.000000000000000000, -0.000000000000000000 ) ) ;
#165 = ORIENTED_EDGE ( 'NONE', *, *, #796, .T. ) ;
#166 =( NAMED_UNIT ( * ) PLANE_ANGLE_UNIT ( ) SI_UNIT ( $, .RADIAN. ) );
#167 = CARTESIAN_POINT ( 'NONE',  ( 0.000000000000000000, 8.000000000000000000, 0.000000000000000000 ) ) ;
#168 = EDGE_LOOP ( 'NONE', ( #665, #828, #882, #701 ) ) ;
#169 = DIRECTION ( 'NONE',  ( 1.000000000000000000, 0.000000000000000000, 0.000000000000000000 ) ) ;
#170 = AXIS2_PLACEMENT_3D ( 'NONE', #136, #423, #705 ) ;
#171 = MANIFOLD_SOLID_BREP ( 'Вырез-Вытянуть1', #340 ) ;
#172 = VECTOR ( 'NONE', #76, 1000.000000000000000 ) ;
#173 = LINE ( 'NONE', #15, #5 ) ;
#174 = ORIENTED_EDGE ( 'NONE', *, *, #253, .F. ) ;
#175 = DIRECTION ( 'NONE',  ( 0.000000000000000000, 0.1736481776669306365, 0.9848077530122080203 ) ) ;
#176 = FACE_OUTER_BOUND ( 'NONE', #680, .T. ) ;
#177 = ORIENTED_EDGE ( 'NONE', *, *, #236, .T. ) ;
#178 = EDGE_CURVE ( 'NONE', #382, #161, #875, .T. ) ;
#179 = APPLICATION_PROTOCOL_DEFINITION ( 'draft international standard', 'automotive_design', 1998, #844 ) ;
#180 = CONICAL_SURFACE ( 'NONE', #802, 29.52094453299467958, 1.396263401595463360 ) ;
#181 = VERTEX_POINT ( 'NONE', #726 ) ;
#182 = CARTESIAN_POINT ( 'NONE',  ( -3.589448514355356945, 4.684934209662851679, 15.73020346634638322 ) ) ;
#183 = AXIS2_PLACEMENT_3D ( 'NONE', #625, #603, #913 ) ;
#184 = VECTOR ( 'NONE', #299, 1000.000000000000000 ) ;
#185 = VECTOR ( 'NONE', #808, 1000.000000000000227 ) ;
#186 = CARTESIAN_POINT ( 'NONE',  ( 0.2971575384037339340, 3.339017059732779735, 8.499999999999996447 ) ) ;
#187 = ORIENTED_EDGE ( 'NONE', *, *, #796, .F. ) ;
#188 = CARTESIAN_POINT ( 'NONE',  ( 0.000000000000000000, 200.0000000000000000, 0.000000000000000000 ) ) ;
#189 = FACE_OUTER_BOUND ( 'NONE', #930, .T. ) ;
#190 = EDGE_CURVE ( 'NONE', #689, #372, #791, .T. ) ;
#191 = ORIENTED_EDGE ( 'NONE', *, *, #880, .F. ) ;
#192 = DIRECTION ( 'NONE',  ( 0.000000000000000000, 0.000000000000000000, -1.000000000000000000 ) ) ;
#193 = DIRECTION ( 'NONE',  ( 0.000000000000000000, 0.000000000000000000, -1.000000000000000000 ) ) ;
#194 = EDGE_CURVE ( 'NONE', #126, #358, #751, .T. ) ;
#195 = CARTESIAN_POINT ( 'NONE',  ( 4.268431343960692459, 4.010692287158305724, 11.54549692907556668 ) ) ;
#196 = ORIENTED_EDGE ( 'NONE', *, *, #586, .F. ) ;
#197 = FACE_OUTER_BOUND ( 'NONE', #322, .T. ) ;
#198 = EDGE_CURVE ( 'NONE', #739, #105, #373, .T. ) ;
#199 = DIRECTION ( 'NONE',  ( 0.000000000000000000, 1.000000000000000000, 0.000000000000000000 ) ) ;
#200 = FILL_AREA_STYLE_COLOUR ( '', #837 ) ;
#201 = PRODUCT_DEFINITION_CONTEXT ( 'detailed design', #255, 'design' ) ;
#202 = PRODUCT ( 'Отливка uWM', 'Отливка uWM', '', ( #470 ) ) ;
#203 = CIRCLE ( 'NONE', #313, 4.499999999999999112 ) ;
#204 = EDGE_LOOP ( 'NONE', ( #608, #887, #623, #869 ) ) ;
#205 = DIRECTION ( 'NONE',  ( 0.000000000000000000, 0.000000000000000000, 1.000000000000000000 ) ) ;
#206 = DIRECTION ( 'NONE',  ( 0.000000000000000000, 0.000000000000000000, -1.000000000000000000 ) ) ;
#207 = SURFACE_SIDE_STYLE ('',( #636 ) ) ;
#208 = ORIENTED_EDGE ( 'NONE', *, *, #241, .T. ) ;
#209 =( LENGTH_UNIT ( ) NAMED_UNIT ( * ) SI_UNIT ( .MILLI., .METRE. ) );
#210 = PRODUCT_DEFINITION_SHAPE ( 'NONE', 'NONE',  #772 ) ;
#211 = CARTESIAN_POINT ( 'NONE',  ( 0.000000000000000000, 0.000000000000000000, -2.750000000000000000 ) ) ;
#212 = ORIENTED_EDGE ( 'NONE', *, *, #198, .F. ) ;
#213 = AXIS2_PLACEMENT_3D ( 'NONE', #666, #302, #454 ) ;
#214 =( NAMED_UNIT ( * ) SI_UNIT ( $, .STERADIAN. ) SOLID_ANGLE_UNIT ( ) );
#215 = EDGE_CURVE ( 'NONE', #739, #472, #575, .T. ) ;
#216 = CARTESIAN_POINT ( 'NONE',  ( 0.000000000000000000, 2.970360041809066765, 6.409242156574772586 ) ) ;
#217 = AXIS2_PLACEMENT_3D ( 'NONE', #552, #630, #413 ) ;
#218 = AXIS2_PLACEMENT_3D ( 'NONE', #912, #263, #192 ) ;
#219 = DIRECTION ( 'NONE',  ( -0.000000000000000000, -1.000000000000000000, -0.000000000000000000 ) ) ;
#220 = CARTESIAN_POINT ( 'NONE',  ( 0.000000000000000000, 200.0000000000000000, 0.000000000000000000 ) ) ;
#221 =( LENGTH_UNIT ( ) NAMED_UNIT ( * ) SI_UNIT ( .MILLI., .METRE. ) );
#222 = ORIENTED_EDGE ( 'NONE', *, *, #402, .F. ) ;
#223 = PRODUCT_DEFINITION ( 'UNKNOWN', '', #669, #407 ) ;
#224 = VERTEX_POINT ( 'NONE', #21 ) ;
#225 = ADVANCED_FACE ( 'NONE', ( #304 ), #522, .F. ) ;
#226 = SURFACE_STYLE_USAGE ( .BOTH. , #138 ) ;
#227 = AXIS2_PLACEMENT_3D ( 'NONE', #323, #799, #805 ) ;
#228 = DIRECTION ( 'NONE',  ( 0.000000000000000000, 0.000000000000000000, 1.000000000000000000 ) ) ;
#229 = CARTESIAN_POINT ( 'NONE',  ( 0.000000000000000000, 8.000000000000000000, 8.500000000000000000 ) ) ;
#230 = MECHANICAL_DESIGN_GEOMETRIC_PRESENTATION_REPRESENTATION (  '', ( #854 ), #290 ) ;
#231 = ORIENTED_EDGE ( 'NONE', *, *, #857, .T. ) ;
#232 = CIRCLE ( 'NONE', #641, 6.409242156574772586 ) ;
#233 = AXIS2_PLACEMENT_3D ( 'NONE', #867, #741, #160 ) ;
#234 = COLOUR_RGB ( '',1.000000000000000000, 0.9372549019607843146, 0.1372549019607843257 ) ;
#235 = VERTEX_POINT ( 'NONE', #288 ) ;
#236 = EDGE_CURVE ( 'NONE', #32, #257, #602, .T. ) ;
#237 = CARTESIAN_POINT ( 'NONE',  ( 0.000000000000000000, 200.0000000000000000, -2.750000000000000000 ) ) ;
#238 = ORIENTED_EDGE ( 'NONE', *, *, #435, .T. ) ;
#239 = SURFACE_STYLE_FILL_AREA ( #90 ) ;
#240 = PRODUCT_DEFINITION_FORMATION_WITH_SPECIFIED_SOURCE ( 'ANY', '', #490, .NOT_KNOWN. ) ;
#241 = EDGE_CURVE ( 'NONE', #529, #224, #660, .T. ) ;
#242 = ORIENTED_EDGE ( 'NONE', *, *, #74, .F. ) ;
#243 = FACE_OUTER_BOUND ( 'NONE', #779, .T. ) ;
#244 = AXIS2_PLACEMENT_3D ( 'NONE', #426, #851, #193 ) ;
#245 = CARTESIAN_POINT ( 'NONE',  ( 0.000000000000000000, 61.99999999992621014, 0.000000000000000000 ) ) ;
#246 = AXIS2_PLACEMENT_3D ( 'NONE', #432, #73, #440 ) ;
#247 = EDGE_CURVE ( 'NONE', #804, #161, #401, .T. ) ;
#248 = ORIENTED_EDGE ( 'NONE', *, *, #198, .T. ) ;
#249 =( LENGTH_UNIT ( ) NAMED_UNIT ( * ) SI_UNIT ( .MILLI., .METRE. ) );
#250 = CARTESIAN_POINT ( 'NONE',  ( 0.000000000000000000, 1.154763476506485809, 0.000000000000000000 ) ) ;
#251 = ORIENTED_EDGE ( 'NONE', *, *, #178, .F. ) ;
#252 = CARTESIAN_POINT ( 'NONE',  ( -1.459893044220043068, 3.400910807418856763, 8.733223421647858586 ) ) ;
#253 = EDGE_CURVE ( 'NONE', #267, #910, #839, .T. ) ;
#254 = AXIS2_PLACEMENT_3D ( 'NONE', #188, #904, #838 ) ;
#255 = APPLICATION_CONTEXT ( 'automotive_design' ) ;
#256 = CARTESIAN_POINT ( 'NONE',  ( 4.498958023952067897, 4.214706332822921730, 12.69287274250967279 ) ) ;
#257 = VERTEX_POINT ( 'NONE', #159 ) ;
#258 = CARTESIAN_POINT ( 'NONE',  ( 0.000000000000000000, 7.045576740875851840, 0.000000000000000000 ) ) ;
#259 = AXIS2_PLACEMENT_3D ( 'NONE', #317, #356, #570 ) ;
#260 = FACE_OUTER_BOUND ( 'NONE', #861, .T. ) ;
#261 = CARTESIAN_POINT ( 'NONE',  ( 2.007586145747181749, 3.458989406323078608, 8.961626922590356870 ) ) ;
#262 = ORIENTED_EDGE ( 'NONE', *, *, #287, .T. ) ;
#263 = DIRECTION ( 'NONE',  ( -0.000000000000000000, -1.000000000000000000, -0.000000000000000000 ) ) ;
#264 = ADVANCED_FACE ( 'NONE', ( #176 ), #736, .T. ) ;
#265 = DIRECTION ( 'NONE',  ( -0.000000000000000000, -1.000000000000000000, -0.000000000000000000 ) ) ;
#266 = PRODUCT_DEFINITION_CONTEXT ( 'detailed design', #812, 'design' ) ;
#267 = VERTEX_POINT ( 'NONE', #325 ) ;
#268 = CARTESIAN_POINT ( 'NONE',  ( -1.460993656636889071, 4.895257357021016276, 17.26648639274691988 ) ) ;
#269 = DIRECTION ( 'NONE',  ( 0.000000000000000000, -0.000000000000000000, 1.000000000000000000 ) ) ;
#270 = CARTESIAN_POINT ( 'NONE',  ( 3.918869757270813188E-15, 57.99999999992623856, 31.99999999999414513 ) ) ;
#271 =( GEOMETRIC_REPRESENTATION_CONTEXT ( 3 ) GLOBAL_UNCERTAINTY_ASSIGNED_CONTEXT ( ( #123 ) ) GLOBAL_UNIT_ASSIGNED_CONTEXT ( ( #209, #573, #725 ) ) REPRESENTATION_CONTEXT ( 'NONE', 'WORKASPACE' ) );
#272 = CARTESIAN_POINT ( 'NONE',  ( 1.175133506478649448, 3.378001568175882152, 8.646146292020766566 ) ) ;
#273 = ORIENTED_EDGE ( 'NONE', *, *, #348, .T. ) ;
#274 = CARTESIAN_POINT ( 'NONE',  ( -3.402772060997023562, 4.717227764668268541, 15.95930683651282322 ) ) ;
#275 = CARTESIAN_POINT ( 'NONE',  ( 0.000000000000000000, 23.99999999992637711, 0.000000000000000000 ) ) ;
#276 =( NAMED_UNIT ( * ) PLANE_ANGLE_UNIT ( ) SI_UNIT ( $, .RADIAN. ) );
#277 = VECTOR ( 'NONE', #471, 1000.000000000000000 ) ;
#278 = AXIS2_PLACEMENT_3D ( 'NONE', #813, #661, #26 ) ;
#279 = VERTEX_POINT ( 'NONE', #684 ) ;
#280 = PRESENTATION_LAYER_ASSIGNMENT (  '', '', ( #928 ) ) ;
#281 = CYLINDRICAL_SURFACE ( 'NONE', #278, 28.99999999999389289 ) ;
#282 = CONTEXT_DEPENDENT_SHAPE_REPRESENTATION ( #422, #847 ) ;
#283 = CARTESIAN_POINT ( 'NONE',  ( 0.000000000000000000, 1.999999999978997245, 0.000000000000000000 ) ) ;
#284 = DIRECTION ( 'NONE',  ( 0.000000000000000000, 0.000000000000000000, -1.000000000000000000 ) ) ;
#285 = LINE ( 'NONE', #7, #676 ) ;
#286 = DIRECTION ( 'NONE',  ( -0.000000000000000000, -1.000000000000000000, -0.000000000000000000 ) ) ;
#287 = EDGE_CURVE ( 'NONE', #358, #809, #46, .T. ) ;
#288 = CARTESIAN_POINT ( 'NONE',  ( 3.551475717526576189E-15, 12.99999999991221067, 28.99999999999389289 ) ) ;
#289 = CARTESIAN_POINT ( 'NONE',  ( 0.000000000000000000, 2.970360041809066765, 0.000000000000000000 ) ) ;
#290 =( GEOMETRIC_REPRESENTATION_CONTEXT ( 3 ) GLOBAL_UNCERTAINTY_ASSIGNED_CONTEXT ( ( #842 ) ) GLOBAL_UNIT_ASSIGNED_CONTEXT ( ( #492, #276, #558 ) ) REPRESENTATION_CONTEXT ( 'NONE', 'WORKASPACE' ) );
#291 = TOROIDAL_SURFACE ( 'NONE', #38, 27.99999999999418065, 3.999999999999930722 ) ;
#292 = FILL_AREA_STYLE_COLOUR ( '', #234 ) ;
#293 = ORIENTED_EDGE ( 'NONE', *, *, #527, .F. ) ;
#294 = FILL_AREA_STYLE_COLOUR ( '', #349 ) ;
#295 = CARTESIAN_POINT ( 'NONE',  ( 0.000000000000000000, 200.0000000000000000, 0.000000000000000000 ) ) ;
#296 = CARTESIAN_POINT ( 'NONE',  ( 5.534630581910216092E-17, 4.925959886108967289, 17.50000000000000000 ) ) ;
#297 = EDGE_LOOP ( 'NONE', ( #222, #307, #50, #753 ) ) ;
#298 = DIRECTION ( 'NONE',  ( -0.000000000000000000, -1.000000000000000000, -0.000000000000000000 ) ) ;
#299 = DIRECTION ( 'NONE',  ( -0.000000000000000000, -1.000000000000000000, -0.000000000000000000 ) ) ;
#300 = CARTESIAN_POINT ( 'NONE',  ( 3.615273023013875749E-15, 7.045576740875851840, 29.52094453299489984 ) ) ;
#301 = ORIENTED_EDGE ( 'NONE', *, *, #57, .F. ) ;
#302 = DIRECTION ( 'NONE',  ( 0.000000000000000000, 0.000000000000000000, 1.000000000000000000 ) ) ;
#303 = AXIS2_PLACEMENT_3D ( 'NONE', #66, #152, #149 ) ;
#304 = FACE_OUTER_BOUND ( 'NONE', #823, .T. ) ;
#305 = ORIENTED_EDGE ( 'NONE', *, *, #931, .F. ) ;
#306 = DIRECTION ( 'NONE',  ( -0.000000000000000000, -1.000000000000000000, -0.000000000000000000 ) ) ;
#307 = ORIENTED_EDGE ( 'NONE', *, *, #337, .T. ) ;
#308 = SURFACE_SIDE_STYLE ('',( #239 ) ) ;
#309 = ADVANCED_FACE ( 'NONE', ( #260 ), #481, .T. ) ;
#310 = PLANE ( 'NONE',  #183 ) ;
#311 = ORIENTED_EDGE ( 'NONE', *, *, #215, .T. ) ;
#312 = CARTESIAN_POINT ( 'NONE',  ( 0.000000000000000000, 9.999999999912304816, 0.000000000000000000 ) ) ;
#313 = AXIS2_PLACEMENT_3D ( 'NONE', #764, #846, #284 ) ;
#314 = APPLICATION_PROTOCOL_DEFINITION ( 'draft international standard', 'automotive_design', 1998, #704 ) ;
#315 = CARTESIAN_POINT ( 'NONE',  ( 5.510910596163088569E-16, 8.000000000000000000, 17.49999999999999645 ) ) ;
#316 = AXIS2_PLACEMENT_3D ( 'NONE', #550, #763, #130 ) ;
#317 = CARTESIAN_POINT ( 'NONE',  ( 3.551475717526576189E-15, 9.999999999912304816, 28.99999999999389289 ) ) ;
#318 = APPLICATION_CONTEXT ( 'automotive_design' ) ;
#319 = VECTOR ( 'NONE', #732, 1000.000000000000227 ) ;
#320 = EDGE_CURVE ( 'NONE', #382, #472, #924, .T. ) ;
#321 = CARTESIAN_POINT ( 'NONE',  ( 3.916963303136806296, 4.613655719917437281, 15.23484117989480069 ) ) ;
#322 = EDGE_LOOP ( 'NONE', ( #301, #774, #833, #146, #112, #633 ) ) ;
#323 = CARTESIAN_POINT ( 'NONE',  ( 5.016902846223993320E-14, 26.99999999992624211, 3.834181622914993377E-13 ) ) ;
#324 = APPLICATION_PROTOCOL_DEFINITION ( 'draft international standard', 'automotive_design', 1998, #162 ) ;
#325 = CARTESIAN_POINT ( 'NONE',  ( 7.330648624831184123E-16, 1.154763476506485809, -5.562615574054281531 ) ) ;
#326 = CARTESIAN_POINT ( 'NONE',  ( 4.277176328537431793, 4.493661453288767760, 14.42879112968555688 ) ) ;
#327 = EDGE_LOOP ( 'NONE', ( #350, #89, #100, #137 ) ) ;
#328 = ADVANCED_FACE ( 'NONE', ( #30 ), #310, .F. ) ;
#329 = CARTESIAN_POINT ( 'NONE',  ( -2.275078789585598393, 3.487332361027219996, 9.073080497167836711 ) ) ;
#330 = CARTESIAN_POINT ( 'NONE',  ( -2.500000000000009326, 8.000000000000000000, 0.000000000000000000 ) ) ;
#331 = CARTESIAN_POINT ( 'NONE',  ( 0.000000000000000000, 7.045576740875851840, 29.52094453299467958 ) ) ;
#332 =( GEOMETRIC_REPRESENTATION_CONTEXT ( 3 ) GLOBAL_UNCERTAINTY_ASSIGNED_CONTEXT ( ( #419 ) ) GLOBAL_UNIT_ASSIGNED_CONTEXT ( ( #249, #166, #894 ) ) REPRESENTATION_CONTEXT ( 'NONE', 'WORKASPACE' ) );
#333 = PRODUCT_DEFINITION_FORMATION_WITH_SPECIFIED_SOURCE ( 'ANY', '', #202, .NOT_KNOWN. ) ;
#334 = CARTESIAN_POINT ( 'NONE',  ( 4.361152996791648029, 4.450628517621387559, 14.14802730555970633 ) ) ;
#335 = ORIENTED_EDGE ( 'NONE', *, *, #348, .F. ) ;
#336 = CARTESIAN_POINT ( 'NONE',  ( -4.354978828654083145, 4.063011311912490875, 11.82990743834643332 ) ) ;
#337 = EDGE_CURVE ( 'NONE', #420, #279, #443, .T. ) ;
#338 = DIRECTION ( 'NONE',  ( 0.000000000000000000, 0.000000000000000000, -1.000000000000000000 ) ) ;
#339 = AXIS2_PLACEMENT_3D ( 'NONE', #865, #83, #228 ) ;
#340 = CLOSED_SHELL ( 'NONE', ( #225, #663, #6, #61, #925, #519, #690, #484, #715, #98, #547, #11, #643, #140, #593, #309, #535, #682, #264, #116, #482, #597, #489, #827 ) ) ;
#341 = CARTESIAN_POINT ( 'NONE',  ( 4.500987434439983836, 4.311941254402489321, 13.27579443175959462 ) ) ;
#342 = ORIENTED_EDGE ( 'NONE', *, *, #365, .F. ) ;
#343 = DIRECTION ( 'NONE',  ( 1.000000000000000000, 0.000000000000000000, -1.224646799147353207E-16 ) ) ;
#344 = ORIENTED_EDGE ( 'NONE', *, *, #563, .F. ) ;
#345 = CARTESIAN_POINT ( 'NONE',  ( -1.172174432269798450, 3.377766777389092479, 8.645253110630939375 ) ) ;
#346 = PRODUCT ( 'Заливка uWave Max', 'Заливка uWave Max', '', ( #895 ) ) ;
#347 = FACE_OUTER_BOUND ( 'NONE', #877, .T. ) ;
#348 = EDGE_CURVE ( 'NONE', #235, #770, #871, .T. ) ;
#349 = COLOUR_RGB ( '',0.1019607843137254888, 0.1019607843137254888, 0.1019607843137254888 ) ;
#350 = ORIENTED_EDGE ( 'NONE', *, *, #604, .T. ) ;
#351 = FACE_OUTER_BOUND ( 'NONE', #204, .T. ) ;
#352 = AXIS2_PLACEMENT_3D ( 'NONE', #759, #109, #396 ) ;
#353 = CIRCLE ( 'NONE', #129, 31.99999999999418065 ) ;
#354 = DIRECTION ( 'NONE',  ( -0.000000000000000000, -1.000000000000000000, -0.000000000000000000 ) ) ;
#355 =( GEOMETRIC_REPRESENTATION_CONTEXT ( 3 ) GLOBAL_UNCERTAINTY_ASSIGNED_CONTEXT ( ( #548 ) ) GLOBAL_UNIT_ASSIGNED_CONTEXT ( ( #221, #879, #371 ) ) REPRESENTATION_CONTEXT ( 'NONE', 'WORKASPACE' ) );
#356 = DIRECTION ( 'NONE',  ( 1.000000000000000000, 0.000000000000000000, -1.224646799147353207E-16 ) ) ;
#357 = CONTEXT_DEPENDENT_SHAPE_REPRESENTATION ( #35, #374 ) ;
#358 = VERTEX_POINT ( 'NONE', #487 ) ;
#359 = FACE_OUTER_BOUND ( 'NONE', #896, .T. ) ;
#360 = DIRECTION ( 'NONE',  ( -0.000000000000000000, -1.000000000000000000, -0.000000000000000000 ) ) ;
#361 = DIRECTION ( 'NONE',  ( -0.000000000000000000, -1.000000000000000000, -0.000000000000000000 ) ) ;
#362 = DIRECTION ( 'NONE',  ( 0.000000000000000000, 0.000000000000000000, 1.000000000000000000 ) ) ;
#363 = PRODUCT_RELATED_PRODUCT_CATEGORY ( 'part', '', ( #490 ) ) ;
#364 = CYLINDRICAL_SURFACE ( 'NONE', #840, 31.99999999999417355 ) ;
#365 = EDGE_CURVE ( 'NONE', #910, #224, #504, .T. ) ;
#366 = CARTESIAN_POINT ( 'NONE',  ( 0.000000000000000000, 0.000000000000000000, -2.500000000000009326 ) ) ;
#367 = AXIS2_PLACEMENT_3D ( 'NONE', #75, #360, #933 ) ;
#368 = CARTESIAN_POINT ( 'NONE',  ( 0.000000000000000000, 57.99999999992627409, 0.000000000000000000 ) ) ;
#369 = CIRCLE ( 'NONE', #911, 28.99999999999389289 ) ;
#370 = TOROIDAL_SURFACE ( 'NONE', #577, 28.99999999999417710, 2.999999999999997335 ) ;
#371 =( NAMED_UNIT ( * ) SI_UNIT ( $, .STERADIAN. ) SOLID_ANGLE_UNIT ( ) );
#372 = VERTEX_POINT ( 'NONE', #211 ) ;
#373 = LINE ( 'NONE', #13, #124 ) ;
#374 = PRODUCT_DEFINITION_SHAPE ( 'NONE', 'NONE',  #935 ) ;
#375 = EDGE_CURVE ( 'NONE', #524, #459, #58, .T. ) ;
#376 = CARTESIAN_POINT ( 'NONE',  ( 7.849057892009574022E-16, 2.970360041809066765, -6.409242156574772586 ) ) ;
#377 = ORIENTED_EDGE ( 'NONE', *, *, #81, .F. ) ;
#378 = CARTESIAN_POINT ( 'NONE',  ( 1.281967516805171804E-14, 5.690004240000001268, 1.020000069507583766E-06 ) ) ;
#379 = SURFACE_STYLE_FILL_AREA ( #448 ) ;
#380 = FACE_OUTER_BOUND ( 'NONE', #97, .T. ) ;
#381 = TOROIDAL_SURFACE ( 'NONE', #20, 28.99999999999389289, 2.999999999999906297 ) ;
#382 = VERTEX_POINT ( 'NONE', #700 ) ;
#383 = CIRCLE ( 'NONE', #576, 2.750000000000000000 ) ;
#384 = DIRECTION ( 'NONE',  ( -0.000000000000000000, -1.000000000000000000, -0.000000000000000000 ) ) ;
#385 = CARTESIAN_POINT ( 'NONE',  ( 0.000000000000000000, 57.99999999992623856, 0.000000000000000000 ) ) ;
#386 = VERTEX_POINT ( 'NONE', #270 ) ;
#387 = ORIENTED_EDGE ( 'NONE', *, *, #569, .T. ) ;
#388 = CARTESIAN_POINT ( 'NONE',  ( 0.000000000000000000, -4.562861884277012738E-16, -3.750000000000009326 ) ) ;
#389 = SHAPE_DEFINITION_REPRESENTATION ( #3, #531 ) ;
#390 = ITEM_DEFINED_TRANSFORMATION ( 'NONE', 'NONE', #921,  #635 ) ;
#391 = ORIENTED_EDGE ( 'NONE', *, *, #287, .F. ) ;
#392 = DIRECTION ( 'NONE',  ( -1.000000000000000000, 0.000000000000000000, 0.000000000000000000 ) ) ;
#393 = APPLICATION_PROTOCOL_DEFINITION ( 'draft international standard', 'automotive_design', 1998, #318 ) ;
#394 = CLOSED_SHELL ( 'NONE', ( #678, #157, #917, #328 ) ) ;
#395 = AXIS2_PLACEMENT_3D ( 'NONE', #594, #881, #457 ) ;
#396 = DIRECTION ( 'NONE',  ( 0.000000000000000000, 0.000000000000000000, -1.000000000000000000 ) ) ;
#397 = MECHANICAL_DESIGN_GEOMETRIC_PRESENTATION_REPRESENTATION (  '', ( #928 ), #355 ) ;
#398 = ORIENTED_EDGE ( 'NONE', *, *, #563, .T. ) ;
#399 = CARTESIAN_POINT ( 'NONE',  ( -2.006640992204514085, 4.864965684491827425, 17.03866321109253690 ) ) ;
#400 = SHAPE_REPRESENTATION ( 'Отливка uWM', ( #47, #227 ), #332 ) ;
#401 = LINE ( 'NONE', #106, #108 ) ;
#402 = EDGE_CURVE ( 'NONE', #420, #386, #691, .T. ) ;
#403 = ORIENTED_EDGE ( 'NONE', *, *, #141, .T. ) ;
#404 = CARTESIAN_POINT ( 'NONE',  ( 0.000000000000000000, 200.0000000000000000, 0.000000000000000000 ) ) ;
#405 = CARTESIAN_POINT ( 'NONE',  ( 0.000000000000000000, 0.000000000000000000, 0.000000000000000000 ) ) ;
#406 = AXIS2_PLACEMENT_3D ( 'NONE', #404, #686, #878 ) ;
#407 = PRODUCT_DEFINITION_CONTEXT ( 'detailed design', #162, 'design' ) ;
#408 = CARTESIAN_POINT ( 'NONE',  ( 0.5962754114998725097, 4.922048496989021693, 17.47008548484788193 ) ) ;
#409 = EDGE_LOOP ( 'NONE', ( #903, #85 ) ) ;
#410 = DIRECTION ( 'NONE',  ( -0.000000000000000000, -1.000000000000000000, -0.000000000000000000 ) ) ;
#411 = CARTESIAN_POINT ( 'NONE',  ( 0.000000000000000000, 8.000000000000000000, 0.000000000000000000 ) ) ;
#412 = AXIS2_PLACEMENT_3D ( 'NONE', #163, #451, #86 ) ;
#413 = DIRECTION ( 'NONE',  ( -1.224646799147353454E-16, 0.000000000000000000, -1.000000000000000000 ) ) ;
#414 = CARTESIAN_POINT ( 'NONE',  ( 4.044936410323436426, 3.907907462199637472, 11.00661725755577969 ) ) ;
#415 = ORIENTED_EDGE ( 'NONE', *, *, #417, .F. ) ;
#416 = DIRECTION ( 'NONE',  ( 0.000000000000000000, 0.000000000000000000, -1.000000000000000000 ) ) ;
#417 = EDGE_CURVE ( 'NONE', #181, #734, #203, .T. ) ;
#418 = DIRECTION ( 'NONE',  ( 1.206041662501897621E-16, 0.1736481776669306365, -0.9848077530122080203 ) ) ;
#419 = UNCERTAINTY_MEASURE_WITH_UNIT (LENGTH_MEASURE( 1.000000000000000082E-05 ), #249, 'distance_accuracy_value', 'NONE');
#420 = VERTEX_POINT ( 'NONE', #775 ) ;
#421 = CARTESIAN_POINT ( 'NONE',  ( -4.275481128557339972, 4.494428960920951788, 14.43383490227478561 ) ) ;
#422 =( REPRESENTATION_RELATIONSHIP ('NONE','NONE', #400, #811 ) REPRESENTATION_RELATIONSHIP_WITH_TRANSFORMATION ( #560 )SHAPE_REPRESENTATION_RELATIONSHIP( ) );
#423 = DIRECTION ( 'NONE',  ( 0.000000000000000000, 1.000000000000000000, 0.000000000000000000 ) ) ;
#424 = EDGE_LOOP ( 'NONE', ( #342, #508, #39, #344 ) ) ;
#425 = FACE_OUTER_BOUND ( 'NONE', #297, .T. ) ;
#426 = CARTESIAN_POINT ( 'NONE',  ( 0.000000000000000000, 57.99999999992623856, 0.000000000000000000 ) ) ;
#427 = AXIS2_PLACEMENT_3D ( 'NONE', #667, #601, #888 ) ;
#428 = EDGE_CURVE ( 'NONE', #804, #386, #2, .T. ) ;
#429 = AXIS2_PLACEMENT_3D ( 'NONE', #737, #589, #87 ) ;
#430 = AXIS2_PLACEMENT_3D ( 'NONE', #922, #926, #906 ) ;
#431 = ORIENTED_EDGE ( 'NONE', *, *, #885, .F. ) ;
#432 = CARTESIAN_POINT ( 'NONE',  ( 0.000000000000000000, 57.99999999992627409, -27.99999999999418065 ) ) ;
#433 = PLANE ( 'NONE',  #170 ) ;
#434 = DIRECTION ( 'NONE',  ( 0.000000000000000000, 0.000000000000000000, 1.000000000000000000 ) ) ;
#435 = EDGE_CURVE ( 'NONE', #914, #809, #709, .T. ) ;
#436 = FACE_OUTER_BOUND ( 'NONE', #72, .T. ) ;
#437 = DIRECTION ( 'NONE',  ( 0.000000000000000000, 0.000000000000000000, 1.000000000000000000 ) ) ;
#438 = STYLED_ITEM ( 'NONE', ( #583 ), #511 ) ;
#439 = DIRECTION ( 'NONE',  ( 0.000000000000000000, 0.000000000000000000, -1.000000000000000000 ) ) ;
#440 = DIRECTION ( 'NONE',  ( 0.000000000000000000, 0.000000000000000000, 1.000000000000000000 ) ) ;
#441 =( LENGTH_UNIT ( ) NAMED_UNIT ( * ) SI_UNIT ( .MILLI., .METRE. ) );
#442 = LINE ( 'NONE', #789, #319 ) ;
#443 = CIRCLE ( 'NONE', #67, 27.99999999999451106 ) ;
#444 = CARTESIAN_POINT ( 'NONE',  ( 0.000000000000000000, 2.970360041809066765, 0.000000000000000000 ) ) ;
#445 = VECTOR ( 'NONE', #418, 1000.000000000000000 ) ;
#446 = AXIS2_PLACEMENT_3D ( 'NONE', #368, #8, #582 ) ;
#447 = ORIENTED_EDGE ( 'NONE', *, *, #699, .F. ) ;
#448 = FILL_AREA_STYLE ('',( #292 ) ) ;
#449 = EDGE_LOOP ( 'NONE', ( #464, #273, #142, #468 ) ) ;
#450 = CARTESIAN_POINT ( 'NONE',  ( 0.000000000000000000, 0.000000000000000000, 0.000000000000000000 ) ) ;
#451 = DIRECTION ( 'NONE',  ( -0.000000000000000000, -1.000000000000000000, -0.000000000000000000 ) ) ;
#452 = CARTESIAN_POINT ( 'NONE',  ( 0.000000000000000000, 57.99999999992623856, -31.99999999999414513 ) ) ;
#453 = ORIENTED_EDGE ( 'NONE', *, *, #750, .F. ) ;
#454 = DIRECTION ( 'NONE',  ( 1.000000000000000000, 0.000000000000000000, 0.000000000000000000 ) ) ;
#455 = DIRECTION ( 'NONE',  ( 0.000000000000000000, 0.000000000000000000, -1.000000000000000000 ) ) ;
#456 = DIRECTION ( 'NONE',  ( -0.000000000000000000, -1.000000000000000000, -0.000000000000000000 ) ) ;
#457 = DIRECTION ( 'NONE',  ( 0.000000000000000000, -0.000000000000000000, -1.000000000000000000 ) ) ;
#458 = AXIS2_PLACEMENT_3D ( 'NONE', #131, #64, #768 ) ;
#459 = VERTEX_POINT ( 'NONE', #830 ) ;
#460 =( NAMED_UNIT ( * ) PLANE_ANGLE_UNIT ( ) SI_UNIT ( $, .RADIAN. ) );
#461 = CIRCLE ( 'NONE', #246, 3.999999999999930722 ) ;
#462 = DIRECTION ( 'NONE',  ( -1.000000000000000000, 0.000000000000000000, 0.000000000000000000 ) ) ;
#463 = PLANE ( 'NONE',  #395 ) ;
#464 = ORIENTED_EDGE ( 'NONE', *, *, #81, .T. ) ;
#465 = MANIFOLD_SOLID_BREP ( 'Бобышка-Вытянуть1', #394 ) ;
#466 = DIRECTION ( 'NONE',  ( 1.000000000000000000, 0.000000000000000000, -1.224646799147353207E-16 ) ) ;
#467 = DIRECTION ( 'NONE',  ( 0.000000000000000000, 0.000000000000000000, -1.000000000000000000 ) ) ;
#468 = ORIENTED_EDGE ( 'NONE', *, *, #96, .F. ) ;
#469 =( GEOMETRIC_REPRESENTATION_CONTEXT ( 3 ) GLOBAL_UNCERTAINTY_ASSIGNED_CONTEXT ( ( #567 ) ) GLOBAL_UNIT_ASSIGNED_CONTEXT ( ( #69, #579, #214 ) ) REPRESENTATION_CONTEXT ( 'NONE', 'WORKASPACE' ) );
#470 = PRODUCT_CONTEXT ( 'NONE', #704, 'mechanical' ) ;
#471 = DIRECTION ( 'NONE',  ( -0.000000000000000000, -1.000000000000000000, -0.000000000000000000 ) ) ;
#472 = VERTEX_POINT ( 'NONE', #497 ) ;
#473 = CARTESIAN_POINT ( 'NONE',  ( -4.500653856223055804, 4.312952168857705715, 13.28196477497052541 ) ) ;
#474 = VECTOR ( 'NONE', #175, 1000.000000000000000 ) ;
#475 = CIRCLE ( 'NONE', #430, 6.409242156574772586 ) ;
#476 = EDGE_CURVE ( 'NONE', #267, #529, #53, .T. ) ;
#477 = AXIS2_PLACEMENT_3D ( 'NONE', #656, #518, #584 ) ;
#478 = ORIENTED_EDGE ( 'NONE', *, *, #194, .T. ) ;
#479 = DIRECTION ( 'NONE',  ( -0.000000000000000000, -1.000000000000000000, -0.000000000000000000 ) ) ;
#480 = DIRECTION ( 'NONE',  ( -0.000000000000000000, -1.000000000000000000, -0.000000000000000000 ) ) ;
#481 = CYLINDRICAL_SURFACE ( 'NONE', #352, 28.99999999999389289 ) ;
#482 = ADVANCED_FACE ( 'NONE', ( #773, #347 ), #433, .F. ) ;
#483 = ORIENTED_EDGE ( 'NONE', *, *, #253, .T. ) ;
#484 = ADVANCED_FACE ( 'NONE', ( #351 ), #807, .T. ) ;
#485 = LINE ( 'NONE', #122, #856 ) ;
#486 = EDGE_CURVE ( 'NONE', #696, #843, #850, .T. ) ;
#487 = CARTESIAN_POINT ( 'NONE',  ( 3.061616997868393988E-16, 8.000000000000000000, 2.500000000000009326 ) ) ;
#488 = ORIENTED_EDGE ( 'NONE', *, *, #241, .F. ) ;
#489 = ADVANCED_FACE ( 'NONE', ( #139 ), #646, .F. ) ;
#490 = PRODUCT ( 'Zima2R uWave Max', 'Zima2R uWave Max', '', ( #107 ) ) ;
#491 = AXIS2_PLACEMENT_3D ( 'NONE', #250, #521, #455 ) ;
#492 =( LENGTH_UNIT ( ) NAMED_UNIT ( * ) SI_UNIT ( .MILLI., .METRE. ) );
#493 = TOROIDAL_SURFACE ( 'NONE', #446, 27.99999999999418065, 3.999999999999930722 ) ;
#494 = CONICAL_SURFACE ( 'NONE', #128, 6.409242156574772586, 0.4363323129985761106 ) ;
#495 = EDGE_LOOP ( 'NONE', ( #187, #231, #814, #251 ) ) ;
#496 = CARTESIAN_POINT ( 'NONE',  ( 0.000000000000000000, 8.000000000000000000, 8.500000000000000000 ) ) ;
#497 = CARTESIAN_POINT ( 'NONE',  ( 3.735172737398696267E-15, 20.99999999992638067, 28.99999999999388933 ) ) ;
#498 = FACE_OUTER_BOUND ( 'NONE', #600, .T. ) ;
#499 = CARTESIAN_POINT ( 'NONE',  ( 0.000000000000000000, 0.000000000000000000, 0.000000000000000000 ) ) ;
#500 = EDGE_CURVE ( 'NONE', #910, #267, #890, .T. ) ;
#501 = PRESENTATION_STYLE_ASSIGNMENT (( #929 ) ) ;
#502 = ORIENTED_EDGE ( 'NONE', *, *, #905, .T. ) ;
#503 = DIRECTION ( 'NONE',  ( -0.000000000000000000, -1.000000000000000000, -0.000000000000000000 ) ) ;
#504 = CIRCLE ( 'NONE', #640, 1.999999999978998577 ) ;
#505 = CARTESIAN_POINT ( 'NONE',  ( 6.523256739204952073E-15, 3.339017059732752202, 8.499999999999896971 ) ) ;
#506 = PRODUCT_DEFINITION_SHAPE ( 'NONE', 'NONE',  #554 ) ;
#507 = AXIS2_PLACEMENT_3D ( 'NONE', #509, #219, #717 ) ;
#508 = ORIENTED_EDGE ( 'NONE', *, *, #500, .T. ) ;
#509 = CARTESIAN_POINT ( 'NONE',  ( 0.000000000000000000, 1.999999999978997245, 0.000000000000000000 ) ) ;
#510 = CARTESIAN_POINT ( 'NONE',  ( 0.000000000000000000, 12.99999999991221067, 0.000000000000000000 ) ) ;
#511 = ADVANCED_BREP_SHAPE_REPRESENTATION ( '', ( #465, #635 ), #469 ) ;
#512 = ORIENTED_EDGE ( 'NONE', *, *, #631, .T. ) ;
#513 = FACE_OUTER_BOUND ( 'NONE', #495, .T. ) ;
#514 = CIRCLE ( 'NONE', #427, 4.499999999999999112 ) ;
#515 = CARTESIAN_POINT ( 'NONE',  ( 3.367778697655221012E-16, 200.0000000000000000, 2.750000000000000000 ) ) ;
#516 = ORIENTED_EDGE ( 'NONE', *, *, #19, .F. ) ;
#517 = AXIS2_PLACEMENT_3D ( 'NONE', #295, #148, #10 ) ;
#518 = DIRECTION ( 'NONE',  ( -0.000000000000000000, -1.000000000000000000, -0.000000000000000000 ) ) ;
#519 = ADVANCED_FACE ( 'NONE', ( #102 ), #607, .T. ) ;
#520 = ORIENTED_EDGE ( 'NONE', *, *, #845, .F. ) ;
#521 = DIRECTION ( 'NONE',  ( -0.000000000000000000, -1.000000000000000000, -0.000000000000000000 ) ) ;
#522 = CYLINDRICAL_SURFACE ( 'NONE', #673, 4.499999999999999112 ) ;
#523 = CARTESIAN_POINT ( 'NONE',  ( 0.000000000000000000, 23.99999999992637711, 0.000000000000000000 ) ) ;
#524 = VERTEX_POINT ( 'NONE', #884 ) ;
#525 =( LENGTH_UNIT ( ) NAMED_UNIT ( * ) SI_UNIT ( .MILLI., .METRE. ) );
#526 = PRODUCT_DEFINITION ( 'UNKNOWN', '', #240, #201 ) ;
#527 = EDGE_CURVE ( 'NONE', #734, #181, #514, .T. ) ;
#528 = AXIS2_PLACEMENT_3D ( 'NONE', #615, #747, #818 ) ;
#529 = VERTEX_POINT ( 'NONE', #388 ) ;
#530 = SURFACE_STYLE_USAGE ( .BOTH. , #308 ) ;
#531 = SHAPE_REPRESENTATION ( 'Zima2R uWave Max', ( #703, #921, #213 ), #733 ) ;
#532 = AXIS2_PLACEMENT_3D ( 'NONE', #523, #738, #95 ) ;
#533 = APPLICATION_PROTOCOL_DEFINITION ( 'draft international standard', 'automotive_design', 1998, #255 ) ;
#534 = ORIENTED_EDGE ( 'NONE', *, *, #141, .F. ) ;
#535 = ADVANCED_FACE ( 'NONE', ( #243 ), #381, .T. ) ;
#536 = DIRECTION ( 'NONE',  ( 0.000000000000000000, 0.1736481776669306365, 0.9848077530122080203 ) ) ;
#537 = ORIENTED_EDGE ( 'NONE', *, *, #569, .F. ) ;
#538 = CARTESIAN_POINT ( 'NONE',  ( -4.046445595406199303, 3.908468823107037249, 11.00945417205750942 ) ) ;
#539 = EDGE_CURVE ( 'NONE', #161, #739, #544, .T. ) ;
#540 = APPLICATION_PROTOCOL_DEFINITION ( 'draft international standard', 'automotive_design', 1998, #860 ) ;
#541 = CARTESIAN_POINT ( 'NONE',  ( 2.752367478588968019, 3.571688057957901119, 9.427867684269406467 ) ) ;
#542 = ORIENTED_EDGE ( 'NONE', *, *, #52, .T. ) ;
#543 = DIRECTION ( 'NONE',  ( 0.000000000000000000, 1.000000000000000000, 0.000000000000000000 ) ) ;
#544 = CIRCLE ( 'NONE', #143, 2.999999999999995559 ) ;
#545 = FACE_OUTER_BOUND ( 'NONE', #655, .T. ) ;
#546 = AXIS2_PLACEMENT_3D ( 'NONE', #31, #892, #467 ) ;
#547 = ADVANCED_FACE ( 'NONE', ( #756 ), #639, .F. ) ;
#548 = UNCERTAINTY_MEASURE_WITH_UNIT (LENGTH_MEASURE( 1.000000000000000082E-05 ), #221, 'distance_accuracy_value', 'NONE');
#549 = ORIENTED_EDGE ( 'NONE', *, *, #750, .T. ) ;
#550 = CARTESIAN_POINT ( 'NONE',  ( 0.000000000000000000, -3.061616997868437868E-16, 0.000000000000000000 ) ) ;
#551 = DIRECTION ( 'NONE',  ( -0.000000000000000000, -1.000000000000000000, -0.000000000000000000 ) ) ;
#552 = CARTESIAN_POINT ( 'NONE',  ( 3.429011037611876540E-15, 57.99999999992627409, 27.99999999999418065 ) ) ;
#553 = B_SPLINE_CURVE_WITH_KNOTS ( 'NONE', 3,
 ( #127, #697, #59, #345, #252, #329, #829, #817, #629, #118, #538, #614, #336, #634, #771, #473, #135, #51, #421, #920, #915, #182, #274, #754, #113, #562, #399, #268, #897, #681, #702, #63 ),
 .UNSPECIFIED., .F., .F.,
 ( 4, 2, 2, 2, 2, 2, 2, 2, 2, 2, 2, 2, 2, 2, 2, 4 ),
 ( 0.02476625984967883651, 0.02565208433380741088, 0.02653790881793598178, 0.02830955778619313051, 0.02919538227032170488, 0.03008120675445027925, 0.03096703123857885362, 0.03185285572270742799, 0.03273868020683600583, 0.03362450469096457673, 0.03451032917509315456, 0.03539615365922173240, 0.03628197814335030330, 0.03716780262747888114, 0.03805362711160745204, 0.03893945159573602988 ),
 .UNSPECIFIED. ) ;
#554 = PRODUCT_DEFINITION ( 'UNKNOWN', '', #333, #266 ) ;
#555 = CARTESIAN_POINT ( 'NONE',  ( 4.469155272176641880, 4.164017958803091446, 12.39797075566685436 ) ) ;
#556 = ORIENTED_EDGE ( 'NONE', *, *, #19, .T. ) ;
#557 = CARTESIAN_POINT ( 'NONE',  ( 0.000000000000000000, -3.061616997868437868E-16, -2.500000000000009326 ) ) ;
#558 =( NAMED_UNIT ( * ) SI_UNIT ( $, .STERADIAN. ) SOLID_ANGLE_UNIT ( ) );
#559 = UNCERTAINTY_MEASURE_WITH_UNIT (LENGTH_MEASURE( 1.000000000000000082E-05 ), #441, 'distance_accuracy_value', 'NONE');
#560 = ITEM_DEFINED_TRANSFORMATION ( 'NONE', 'NONE', #227,  #635 ) ;
#561 = EDGE_LOOP ( 'NONE', ( #431, #262, #652, #242 ) ) ;
#562 = CARTESIAN_POINT ( 'NONE',  ( -2.266280130846963115, 4.846288972874206458, 16.89898738502481734 ) ) ;
#563 = EDGE_CURVE ( 'NONE', #224, #529, #158, .T. ) ;
#564 = DIRECTION ( 'NONE',  ( 0.000000000000000000, 0.000000000000000000, -1.000000000000000000 ) ) ;
#565 = PRESENTATION_LAYER_ASSIGNMENT (  '', '', ( #854 ) ) ;
#566 = ORIENTED_EDGE ( 'NONE', *, *, #29, .F. ) ;
#567 = UNCERTAINTY_MEASURE_WITH_UNIT (LENGTH_MEASURE( 1.000000000000000082E-05 ), #69, 'distance_accuracy_value', 'NONE');
#568 = ORIENTED_EDGE ( 'NONE', *, *, #760, .T. ) ;
#569 = EDGE_CURVE ( 'NONE', #32, #524, #475, .T. ) ;
#570 = DIRECTION ( 'NONE',  ( -1.224646799147353207E-16, 0.000000000000000000, -1.000000000000000000 ) ) ;
#571 = DIRECTION ( 'NONE',  ( -0.000000000000000000, -1.000000000000000000, -0.000000000000000000 ) ) ;
#572 = CYLINDRICAL_SURFACE ( 'NONE', #825, 2.500000000000009326 ) ;
#573 =( NAMED_UNIT ( * ) PLANE_ANGLE_UNIT ( ) SI_UNIT ( $, .RADIAN. ) );
#574 = DIRECTION ( 'NONE',  ( 0.000000000000000000, 0.000000000000000000, -1.000000000000000000 ) ) ;
#575 = CIRCLE ( 'NONE', #412, 28.99999999999388933 ) ;
#576 = AXIS2_PLACEMENT_3D ( 'NONE', #220, #706, #434 ) ;
#577 = AXIS2_PLACEMENT_3D ( 'NONE', #275, #826, #564 ) ;
#578 = DIRECTION ( 'NONE',  ( 0.000000000000000000, 1.000000000000000000, 0.000000000000000000 ) ) ;
#579 =( NAMED_UNIT ( * ) PLANE_ANGLE_UNIT ( ) SI_UNIT ( $, .RADIAN. ) );
#580 = SURFACE_SIDE_STYLE ('',( #379 ) ) ;
#581 = DIRECTION ( 'NONE',  ( 0.000000000000000000, 0.000000000000000000, -1.000000000000000000 ) ) ;
#582 = DIRECTION ( 'NONE',  ( 0.000000000000000000, 0.000000000000000000, -1.000000000000000000 ) ) ;
#583 = PRESENTATION_STYLE_ASSIGNMENT (( #226 ) ) ;
#584 = DIRECTION ( 'NONE',  ( 0.000000000000000000, 0.000000000000000000, -1.000000000000000000 ) ) ;
#585 = ORIENTED_EDGE ( 'NONE', *, *, #880, .T. ) ;
#586 = EDGE_CURVE ( 'NONE', #809, #914, #722, .T. ) ;
#587 = FACE_OUTER_BOUND ( 'NONE', #168, .T. ) ;
#588 = AXIS2_PLACEMENT_3D ( 'NONE', #114, #683, #932 ) ;
#589 = DIRECTION ( 'NONE',  ( -0.000000000000000000, -1.000000000000000000, -0.000000000000000000 ) ) ;
#590 = CYLINDRICAL_SURFACE ( 'NONE', #546, 31.99999999999417355 ) ;
#591 = AXIS2_PLACEMENT_3D ( 'NONE', #620, #480, #206 ) ;
#592 = ORIENTED_EDGE ( 'NONE', *, *, #905, .F. ) ;
#593 = ADVANCED_FACE ( 'NONE', ( #545 ), #370, .T. ) ;
#594 = CARTESIAN_POINT ( 'NONE',  ( 0.000000000000000000, 8.000000000000000000, 13.00000000000000000 ) ) ;
#595 = ORIENTED_EDGE ( 'NONE', *, *, #486, .F. ) ;
#596 = DIRECTION ( 'NONE',  ( 0.000000000000000000, 0.000000000000000000, -1.000000000000000000 ) ) ;
#597 = ADVANCED_FACE ( 'NONE', ( #189 ), #119, .F. ) ;
#598 = COLOUR_RGB ( '',1.000000000000000000, 0.9372549019607843146, 0.1372549019607843257 ) ;
#599 = DIRECTION ( 'NONE',  ( 0.000000000000000000, 0.000000000000000000, -1.000000000000000000 ) ) ;
#600 = EDGE_LOOP ( 'NONE', ( #893, #816 ) ) ;
#601 = DIRECTION ( 'NONE',  ( 0.000000000000000000, -1.000000000000000000, 0.000000000000000000 ) ) ;
#602 = LINE ( 'NONE', #331, #474 ) ;
#603 = DIRECTION ( 'NONE',  ( 0.000000000000000000, 1.000000000000000000, 0.000000000000000000 ) ) ;
#604 = EDGE_CURVE ( 'NONE', #279, #420, #891, .T. ) ;
#605 = DIRECTION ( 'NONE',  ( 0.000000000000000000, 0.000000000000000000, 1.000000000000000000 ) ) ;
#606 = FACE_OUTER_BOUND ( 'NONE', #55, .T. ) ;
#607 = TOROIDAL_SURFACE ( 'NONE', #821, 28.99999999999389289, 2.999999999999906297 ) ;
#608 = ORIENTED_EDGE ( 'NONE', *, *, #845, .T. ) ;
#609 =( NAMED_UNIT ( * ) SI_UNIT ( $, .STERADIAN. ) SOLID_ANGLE_UNIT ( ) );
#610 = DIRECTION ( 'NONE',  ( -0.000000000000000000, -1.000000000000000000, -0.000000000000000000 ) ) ;
#611 = SHAPE_DEFINITION_REPRESENTATION ( #506, #400 ) ;
#612 = PRODUCT_RELATED_PRODUCT_CATEGORY ( 'part', '', ( #346 ) ) ;
#613 = ORIENTED_EDGE ( 'NONE', *, *, #190, .F. ) ;
#614 = CARTESIAN_POINT ( 'NONE',  ( -4.270559287920273839, 4.011805802419329936, 11.55144278052975260 ) ) ;
#615 = CARTESIAN_POINT ( 'NONE',  ( 0.000000000000000000, -4.562861884277012738E-16, 0.000000000000000000 ) ) ;
#616 = SHAPE_DEFINITION_REPRESENTATION ( #731, #749 ) ;
#617 = CARTESIAN_POINT ( 'NONE',  ( 4.473957970017642616, 4.359034143220137381, 13.56685292470893245 ) ) ;
#618 = ORIENTED_EDGE ( 'NONE', *, *, #931, .T. ) ;
#619 = DIRECTION ( 'NONE',  ( -0.000000000000000000, -1.000000000000000000, -0.000000000000000000 ) ) ;
#620 = CARTESIAN_POINT ( 'NONE',  ( 0.000000000000000000, -4.562861884277012738E-16, 0.000000000000000000 ) ) ;
#621 = PRESENTATION_LAYER_ASSIGNMENT (  '', '', ( #849 ) ) ;
#622 = CARTESIAN_POINT ( 'NONE',  ( 2.266490197483165048, 3.493735534673848342, 9.101451782651171385 ) ) ;
#623 = ORIENTED_EDGE ( 'NONE', *, *, #215, .F. ) ;
#624 = AXIS2_PLACEMENT_3D ( 'NONE', #4, #156, #780 ) ;
#625 = CARTESIAN_POINT ( 'NONE',  ( 0.000000000000000000, 0.000000000000000000, 0.000000000000000000 ) ) ;
#626 = UNCERTAINTY_MEASURE_WITH_UNIT (LENGTH_MEASURE( 1.000000000000000082E-05 ), #101, 'distance_accuracy_value', 'NONE');
#627 = CARTESIAN_POINT ( 'NONE',  ( 4.056038291375552163, 4.574984379136178170, 14.97084621839563390 ) ) ;
#628 = ORIENTED_EDGE ( 'NONE', *, *, #527, .T. ) ;
#629 = CARTESIAN_POINT ( 'NONE',  ( -3.584760305492180166, 3.757267666944675621, 10.26426932527041735 ) ) ;
#630 = DIRECTION ( 'NONE',  ( 1.000000000000000000, 0.000000000000000000, -1.224646799147353207E-16 ) ) ;
#631 = EDGE_CURVE ( 'NONE', #696, #689, #485, .T. ) ;
#632 = CARTESIAN_POINT ( 'NONE',  ( 3.396440553302698895, 3.707869976705491677, 10.03342163250757046 ) ) ;
#633 = ORIENTED_EDGE ( 'NONE', *, *, #236, .F. ) ;
#634 = CARTESIAN_POINT ( 'NONE',  ( -4.469534878268383693, 4.164624250001907058, 12.40148920410345390 ) ) ;
#635 = AXIS2_PLACEMENT_3D ( 'NONE', #499, #437, #777 ) ;
#636 = SURFACE_STYLE_FILL_AREA ( #693 ) ;
#637 = PRODUCT_DEFINITION_CONTEXT ( 'detailed design', #844, 'design' ) ;
#638 = ORIENTED_EDGE ( 'NONE', *, *, #428, .T. ) ;
#639 = PLANE ( 'NONE',  #908 ) ;
#640 = AXIS2_PLACEMENT_3D ( 'NONE', #916, #343, #644 ) ;
#641 = AXIS2_PLACEMENT_3D ( 'NONE', #444, #361, #647 ) ;
#642 = CARTESIAN_POINT ( 'NONE',  ( 0.000000000000000000, 61.99999999992624566, 0.000000000000000000 ) ) ;
#643 = ADVANCED_FACE ( 'NONE', ( #425 ), #493, .T. ) ;
#644 = DIRECTION ( 'NONE',  ( -1.224646799147353207E-16, 0.000000000000000000, -1.000000000000000000 ) ) ;
#645 = ORIENTED_EDGE ( 'NONE', *, *, #96, .T. ) ;
#646 = CYLINDRICAL_SURFACE ( 'NONE', #367, 4.499999999999999112 ) ;
#647 = DIRECTION ( 'NONE',  ( 0.000000000000000000, 0.000000000000000000, -1.000000000000000000 ) ) ;
#648 = FACE_OUTER_BOUND ( 'NONE', #561, .T. ) ;
#649 = CARTESIAN_POINT ( 'NONE',  ( 0.000000000000000000, 23.99999999992637711, -31.99999999999417355 ) ) ;
#650 = AXIS2_PLACEMENT_3D ( 'NONE', #876, #462, #605 ) ;
#651 = VECTOR ( 'NONE', #551, 1000.000000000000000 ) ;
#652 = ORIENTED_EDGE ( 'NONE', *, *, #586, .T. ) ;
#653 = LINE ( 'NONE', #79, #172 ) ;
#654 = CARTESIAN_POINT ( 'NONE',  ( 3.367778697655221012E-16, 0.000000000000000000, 2.750000000000000000 ) ) ;
#655 = EDGE_LOOP ( 'NONE', ( #742, #798, #836, #516 ) ) ;
#656 = CARTESIAN_POINT ( 'NONE',  ( 0.000000000000000000, 23.99999999992637711, 0.000000000000000000 ) ) ;
#657 = ORIENTED_EDGE ( 'NONE', *, *, #247, .F. ) ;
#658 = DIRECTION ( 'NONE',  ( -0.8885581812658075451, -3.581613402581389948E-15, 0.4587639463881181823 ) ) ;
#659 = DIRECTION ( 'NONE',  ( 0.000000000000000000, 0.000000000000000000, -1.000000000000000000 ) ) ;
#660 = CIRCLE ( 'NONE', #528, 3.750000000000009326 ) ;
#661 = DIRECTION ( 'NONE',  ( -0.000000000000000000, -1.000000000000000000, -0.000000000000000000 ) ) ;
#662 = AXIS2_PLACEMENT_3D ( 'NONE', #23, #803, #728 ) ;
#663 = ADVANCED_FACE ( 'NONE', ( #648 ), #572, .F. ) ;
#664 = ORIENTED_EDGE ( 'NONE', *, *, #885, .T. ) ;
#665 = ORIENTED_EDGE ( 'NONE', *, *, #631, .F. ) ;
#666 = CARTESIAN_POINT ( 'NONE',  ( 0.000000000000000000, 0.000000000000000000, 0.000000000000000000 ) ) ;
#667 = CARTESIAN_POINT ( 'NONE',  ( 0.000000000000000000, 8.000000000000000000, 13.00000000000000000 ) ) ;
#668 = DIRECTION ( 'NONE',  ( 0.000000000000000000, 1.000000000000000000, 0.000000000000000000 ) ) ;
#669 = PRODUCT_DEFINITION_FORMATION_WITH_SPECIFIED_SOURCE ( 'ANY', '', #783, .NOT_KNOWN. ) ;
#670 = ORIENTED_EDGE ( 'NONE', *, *, #74, .T. ) ;
#671 = APPLICATION_PROTOCOL_DEFINITION ( 'draft international standard', 'automotive_design', 1998, #48 ) ;
#672 = EDGE_CURVE ( 'NONE', #279, #804, #461, .T. ) ;
#673 = AXIS2_PLACEMENT_3D ( 'NONE', #735, #456, #92 ) ;
#674 = ORIENTED_EDGE ( 'NONE', *, *, #417, .T. ) ;
#675 = CIRCLE ( 'NONE', #429, 28.99999999999389289 ) ;
#676 = VECTOR ( 'NONE', #571, 1000.000000000000000 ) ;
#677 = PRODUCT_CONTEXT ( 'NONE', #318, 'mechanical' ) ;
#678 = ADVANCED_FACE ( 'NONE', ( #359 ), #853, .T. ) ;
#679 = CARTESIAN_POINT ( 'NONE',  ( 1.460594822950408656, 4.895299684866643020, 17.26680074705488721 ) ) ;
#680 = EDGE_LOOP ( 'NONE', ( #794, #788, #403, #387 ) ) ;
#681 = CARTESIAN_POINT ( 'NONE',  ( -0.5918404177951219758, 4.922131366642463313, 17.47071765372666974 ) ) ;
#682 = ADVANCED_FACE ( 'NONE', ( #436 ), #22, .T. ) ;
#683 = DIRECTION ( 'NONE',  ( -0.000000000000000000, -1.000000000000000000, -0.000000000000000000 ) ) ;
#684 = CARTESIAN_POINT ( 'NONE',  ( 0.000000000000000000, 61.99999999992621014, -27.99999999999451106 ) ) ;
#685 = CARTESIAN_POINT ( 'NONE',  ( 5.534630581910216092E-17, 4.925959886108967289, 17.50000000000000000 ) ) ;
#686 = DIRECTION ( 'NONE',  ( 0.000000000000000000, 1.000000000000000000, 0.000000000000000000 ) ) ;
#687 =( GEOMETRIC_REPRESENTATION_CONTEXT ( 3 ) GLOBAL_UNCERTAINTY_ASSIGNED_CONTEXT ( ( #626 ) ) GLOBAL_UNIT_ASSIGNED_CONTEXT ( ( #101, #870, #609 ) ) REPRESENTATION_CONTEXT ( 'NONE', 'WORKASPACE' ) );
#688 = CARTESIAN_POINT ( 'NONE',  ( 2.270478354714522862, 4.845940358301604078, 16.89640132584792198 ) ) ;
#689 = VERTEX_POINT ( 'NONE', #654 ) ;
#690 = ADVANCED_FACE ( 'NONE', ( #784 ), #281, .T. ) ;
#691 = CIRCLE ( 'NONE', #217, 3.999999999999930722 ) ;
#692 = CIRCLE ( 'NONE', #662, 29.52094453299467958 ) ;
#693 = FILL_AREA_STYLE ('',( #200 ) ) ;
#694 = UNCERTAINTY_MEASURE_WITH_UNIT (LENGTH_MEASURE( 1.000000000000000082E-05 ), #525, 'distance_accuracy_value', 'NONE');
#695 = CARTESIAN_POINT ( 'NONE',  ( 3.904746070466092345, 3.855945488391711251, 10.74432698454203106 ) ) ;
#696 = VERTEX_POINT ( 'NONE', #515 ) ;
#697 = CARTESIAN_POINT ( 'NONE',  ( -0.2971435725067316791, 3.339017059732777515, 8.499999999999989342 ) ) ;
#698 = DIRECTION ( 'NONE',  ( -0.000000000000000000, -1.000000000000000000, -0.000000000000000000 ) ) ;
#699 = EDGE_CURVE ( 'NONE', #372, #689, #790, .T. ) ;
#700 = CARTESIAN_POINT ( 'NONE',  ( 3.918869757270816344E-15, 23.99999999992637711, 31.99999999999417355 ) ) ;
#701 = ORIENTED_EDGE ( 'NONE', *, *, #699, .T. ) ;
#702 = CARTESIAN_POINT ( 'NONE',  ( -0.2978451840677986961, 4.925959886108967289, 17.50000000000000000 ) ) ;
#703 = AXIS2_PLACEMENT_3D ( 'NONE', #810, #819, #103 ) ;
#704 = APPLICATION_CONTEXT ( 'automotive_design' ) ;
#705 = DIRECTION ( 'NONE',  ( 0.000000000000000000, -0.000000000000000000, 1.000000000000000000 ) ) ;
#706 = DIRECTION ( 'NONE',  ( 0.000000000000000000, 1.000000000000000000, 0.000000000000000000 ) ) ;
#707 = ADVANCED_BREP_SHAPE_REPRESENTATION ( '', ( #171, #635 ), #687 ) ;
#708 = DIRECTION ( 'NONE',  ( 0.000000000000000000, 0.000000000000000000, -1.000000000000000000 ) ) ;
#709 = CIRCLE ( 'NONE', #37, 2.500000000000009326 ) ;
#710 = PLANE ( 'NONE',  #927 ) ;
#711 = DIRECTION ( 'NONE',  ( 0.000000000000000000, 0.000000000000000000, -1.000000000000000000 ) ) ;
#712 = DIRECTION ( 'NONE',  ( 0.000000000000000000, 0.000000000000000000, -1.000000000000000000 ) ) ;
#713 = PRODUCT_DEFINITION_SHAPE ( 'NONE', 'NONE',  #934 ) ;
#714 = CARTESIAN_POINT ( 'NONE',  ( 0.000000000000000000, 7.045576740875851840, 0.000000000000000000 ) ) ;
#715 = ADVANCED_FACE ( 'NONE', ( #606 ), #590, .T. ) ;
#716 = B_SPLINE_CURVE_WITH_KNOTS ( 'NONE', 3,
 ( #685, #752, #408, #111, #679, #125, #688, #909, #49, #54, #43, #321, #627, #326, #334, #617, #341, #256, #555, #902, #195, #414, #695, #769, #632, #133, #541, #622, #261, #918, #272, #822, #186, #505 ),
 .UNSPECIFIED., .F., .F.,
 ( 4, 2, 2, 2, 2, 2, 2, 2, 2, 2, 2, 2, 2, 2, 2, 2, 4 ),
 ( 0.01059240195649985283, 0.01147826807482353953, 0.01236413419314722623, 0.01325000031147091292, 0.01413586642979459962, 0.01502173254811828458, 0.01590759866644197301, 0.01679346478476565624, 0.01767933090308934294, 0.01856519702141302963, 0.01945106313973671633, 0.02033692925806040303, 0.02122279537638408972, 0.02210866149470777642, 0.02299452761303146311, 0.02388039373135514981, 0.02476625984967883651 ),
 .UNSPECIFIED. ) ;
#717 = DIRECTION ( 'NONE',  ( 0.000000000000000000, 0.000000000000000000, -1.000000000000000000 ) ) ;
#718 = MECHANICAL_DESIGN_GEOMETRIC_PRESENTATION_REPRESENTATION (  '', ( #438 ), #271 ) ;
#719 = LINE ( 'NONE', #366, #184 ) ;
#720 = CARTESIAN_POINT ( 'NONE',  ( 0.000000000000000000, 200.0000000000000000, 0.000000000000000000 ) ) ;
#721 = FACE_OUTER_BOUND ( 'NONE', #424, .T. ) ;
#722 = CIRCLE ( 'NONE', #316, 2.500000000000009326 ) ;
#723 = VERTEX_POINT ( 'NONE', #296 ) ;
#724 = DIRECTION ( 'NONE',  ( 0.000000000000000000, 0.000000000000000000, -1.000000000000000000 ) ) ;
#725 =( NAMED_UNIT ( * ) SI_UNIT ( $, .STERADIAN. ) SOLID_ANGLE_UNIT ( ) );
#726 = CARTESIAN_POINT ( 'NONE',  ( 5.510910596163089556E-16, 8.000000000000000000, 17.49999999999999645 ) ) ;
#727 = DIRECTION ( 'NONE',  ( 0.000000000000000000, 0.000000000000000000, 1.000000000000000000 ) ) ;
#728 = DIRECTION ( 'NONE',  ( 0.000000000000000000, 0.000000000000000000, -1.000000000000000000 ) ) ;
#729 = ORIENTED_EDGE ( 'NONE', *, *, #862, .T. ) ;
#730 = FILL_AREA_STYLE_COLOUR ( '', #598 ) ;
#731 = PRODUCT_DEFINITION_SHAPE ( 'NONE', 'NONE',  #223 ) ;
#732 = DIRECTION ( 'NONE',  ( 0.000000000000000000, 0.9063077870366526012, 0.4226182617406937236 ) ) ;
#733 =( GEOMETRIC_REPRESENTATION_CONTEXT ( 3 ) GLOBAL_UNCERTAINTY_ASSIGNED_CONTEXT ( ( #559 ) ) GLOBAL_UNIT_ASSIGNED_CONTEXT ( ( #441, #889, #42 ) ) REPRESENTATION_CONTEXT ( 'NONE', 'WORKASPACE' ) );
#734 = VERTEX_POINT ( 'NONE', #229 ) ;
#735 = CARTESIAN_POINT ( 'NONE',  ( 0.000000000000000000, 8.000000000000000000, 13.00000000000000000 ) ) ;
#736 = CONICAL_SURFACE ( 'NONE', #80, 6.409242156574772586, 0.4363323129985761106 ) ;
#737 = CARTESIAN_POINT ( 'NONE',  ( 0.000000000000000000, 12.99999999991221067, 0.000000000000000000 ) ) ;
#738 = DIRECTION ( 'NONE',  ( -0.000000000000000000, -1.000000000000000000, -0.000000000000000000 ) ) ;
#739 = VERTEX_POINT ( 'NONE', #793 ) ;
#740 = CARTESIAN_POINT ( 'NONE',  ( 0.000000000000000000, 0.000000000000000000, 0.000000000000000000 ) ) ;
#741 = DIRECTION ( 'NONE',  ( 0.000000000000000000, 1.000000000000000000, 0.000000000000000000 ) ) ;
#742 = ORIENTED_EDGE ( 'NONE', *, *, #320, .F. ) ;
#743 = CARTESIAN_POINT ( 'NONE',  ( 3.615273023013849717E-15, 7.045576740875851840, -29.52094453299467958 ) ) ;
#744 = ORIENTED_EDGE ( 'NONE', *, *, #435, .F. ) ;
#745 = DIRECTION ( 'NONE',  ( 1.000000000000000000, 0.000000000000000000, 0.000000000000000000 ) ) ;
#746 = DIRECTION ( 'NONE',  ( 0.000000000000000000, 0.000000000000000000, -1.000000000000000000 ) ) ;
#747 = DIRECTION ( 'NONE',  ( -0.000000000000000000, -1.000000000000000000, -0.000000000000000000 ) ) ;
#748 = SHAPE_DEFINITION_REPRESENTATION ( #210, #811 ) ;
#749 = SHAPE_REPRESENTATION ( 'КМГПЭУГ 4х0,12-2,0', ( #635 ), #469 ) ;
#750 = EDGE_CURVE ( 'NONE', #770, #459, #692, .T. ) ;
#751 = CIRCLE ( 'NONE', #91, 2.500000000000009326 ) ;
#752 = CARTESIAN_POINT ( 'NONE',  ( 0.2978591829408551717, 4.925959886108969066, 17.50000000000000000 ) ) ;
#753 = ORIENTED_EDGE ( 'NONE', *, *, #857, .F. ) ;
#754 = CARTESIAN_POINT ( 'NONE',  ( -2.989013998295496854, 4.775282184761635129, 16.37670697125572872 ) ) ;
#755 = AXIS2_PLACEMENT_3D ( 'NONE', #405, #698, #338 ) ;
#756 = FACE_OUTER_BOUND ( 'NONE', #761, .T. ) ;
#757 = ORIENTED_EDGE ( 'NONE', *, *, #57, .T. ) ;
#758 = CARTESIAN_POINT ( 'NONE',  ( 0.000000000000000000, 1.154763476506485809, 5.562615574054281531 ) ) ;
#759 = CARTESIAN_POINT ( 'NONE',  ( 0.000000000000000000, 0.000000000000000000, 0.000000000000000000 ) ) ;
#760 = EDGE_CURVE ( 'NONE', #267, #524, #84, .T. ) ;
#761 = EDGE_LOOP ( 'NONE', ( #478, #664 ) ) ;
#762 = PRODUCT_DEFINITION_FORMATION_WITH_SPECIFIED_SOURCE ( 'ANY', '', #346, .NOT_KNOWN. ) ;
#763 = DIRECTION ( 'NONE',  ( -0.000000000000000000, -1.000000000000000000, -0.000000000000000000 ) ) ;
#764 = CARTESIAN_POINT ( 'NONE',  ( 0.000000000000000000, 8.000000000000000000, 13.00000000000000000 ) ) ;
#765 = AXIS2_PLACEMENT_3D ( 'NONE', #71, #503, #778 ) ;
#766 = TOROIDAL_SURFACE ( 'NONE', #507, 3.750000000000009326, 1.999999999978998577 ) ;
#767 = CIRCLE ( 'NONE', #899, 2.500000000000009326 ) ;
#768 = DIRECTION ( 'NONE',  ( 0.000000000000000000, 0.000000000000000000, 1.000000000000000000 ) ) ;
#769 = CARTESIAN_POINT ( 'NONE',  ( 3.580828124039261429, 3.756170620350567813, 10.25905626223829614 ) ) ;
#770 = VERTEX_POINT ( 'NONE', #300 ) ;
#771 = CARTESIAN_POINT ( 'NONE',  ( -4.499322801589126897, 4.215502434320696601, 12.69753744866546263 ) ) ;
#772 = PRODUCT_DEFINITION ( 'UNKNOWN', '', #762, #637 ) ;
#773 = FACE_BOUND ( 'NONE', #16, .T. ) ;
#774 = ORIENTED_EDGE ( 'NONE', *, *, #375, .T. ) ;
#775 = CARTESIAN_POINT ( 'NONE',  ( 3.673940397441363402E-15, 61.99999999992621014, 27.99999999999451106 ) ) ;
#776 = EDGE_LOOP ( 'NONE', ( #447, #613 ) ) ;
#777 = DIRECTION ( 'NONE',  ( 1.000000000000000000, 0.000000000000000000, 0.000000000000000000 ) ) ;
#778 = DIRECTION ( 'NONE',  ( 0.000000000000000000, 0.000000000000000000, -1.000000000000000000 ) ) ;
#779 = EDGE_LOOP ( 'NONE', ( #335, #134, #645, #453 ) ) ;
#780 = DIRECTION ( 'NONE',  ( 0.000000000000000000, 0.000000000000000000, -1.000000000000000000 ) ) ;
#781 = DIRECTION ( 'NONE',  ( -0.000000000000000000, -1.000000000000000000, -0.000000000000000000 ) ) ;
#782 = PRODUCT_RELATED_PRODUCT_CATEGORY ( 'part', '', ( #202 ) ) ;
#783 = PRODUCT ( 'КМГПЭУГ 4х0,12-2,0', 'КМГПЭУГ 4х0,12-2,0', '', ( #677 ) ) ;
#784 = FACE_OUTER_BOUND ( 'NONE', #154, .T. ) ;
#785 = FILL_AREA_STYLE ('',( #294 ) ) ;
#786 = PRESENTATION_LAYER_ASSIGNMENT (  '', '', ( #438 ) ) ;
#787 = FACE_OUTER_BOUND ( 'NONE', #923, .T. ) ;
#788 = ORIENTED_EDGE ( 'NONE', *, *, #500, .F. ) ;
#789 = CARTESIAN_POINT ( 'NONE',  ( 0.000000000000000000, 2.970360041809066765, 6.409242156574772586 ) ) ;
#790 = CIRCLE ( 'NONE', #233, 2.750000000000000000 ) ;
#791 = CIRCLE ( 'NONE', #339, 2.750000000000000000 ) ;
#792 = DIRECTION ( 'NONE',  ( -1.224646799147353700E-16, 0.000000000000000000, -1.000000000000000000 ) ) ;
#793 = CARTESIAN_POINT ( 'NONE',  ( 0.000000000000000000, 20.99999999992638067, -28.99999999999388933 ) ) ;
#794 = ORIENTED_EDGE ( 'NONE', *, *, #760, .F. ) ;
#795 = DIRECTION ( 'NONE',  ( 0.000000000000000000, 0.000000000000000000, 1.000000000000000000 ) ) ;
#796 = EDGE_CURVE ( 'NONE', #386, #382, #173, .T. ) ;
#797 = CARTESIAN_POINT ( 'NONE',  ( 0.000000000000000000, 0.000000000000000000, 0.000000000000000000 ) ) ;
#798 = ORIENTED_EDGE ( 'NONE', *, *, #178, .T. ) ;
#799 = DIRECTION ( 'NONE',  ( -0.9999999999999970024, 3.456536906249603913E-15, 7.846156948543893933E-08 ) ) ;
#800 = SURFACE_STYLE_USAGE ( .BOTH. , #580 ) ;
#801 = CARTESIAN_POINT ( 'NONE',  ( 0.000000000000000000, 12.99999999991221067, -28.99999999999389289 ) ) ;
#802 = AXIS2_PLACEMENT_3D ( 'NONE', #258, #543, #205 ) ;
#803 = DIRECTION ( 'NONE',  ( -0.000000000000000000, -1.000000000000000000, -0.000000000000000000 ) ) ;
#804 = VERTEX_POINT ( 'NONE', #452 ) ;
#805 = DIRECTION ( 'NONE',  ( -7.846156948543893933E-08, 1.408329922532597787E-14, -0.9999999999999970024 ) ) ;
#806 = DIRECTION ( 'NONE',  ( -0.000000000000000000, -1.000000000000000000, -0.000000000000000000 ) ) ;
#807 = TOROIDAL_SURFACE ( 'NONE', #765, 28.99999999999417710, 2.999999999999997335 ) ;
#808 = DIRECTION ( 'NONE',  ( 5.175581015019589136E-17, 0.9063077870366526012, -0.4226182617406937236 ) ) ;
#809 = VERTEX_POINT ( 'NONE', #88 ) ;
#810 = CARTESIAN_POINT ( 'NONE',  ( 0.000000000000000000, 0.000000000000000000, 0.000000000000000000 ) ) ;
#811 = SHAPE_REPRESENTATION ( 'Заливка uWave Max', ( #635 ), #687 ) ;
#812 = APPLICATION_CONTEXT ( 'automotive_design' ) ;
#813 = CARTESIAN_POINT ( 'NONE',  ( 0.000000000000000000, 0.000000000000000000, 0.000000000000000000 ) ) ;
#814 = ORIENTED_EDGE ( 'NONE', *, *, #247, .T. ) ;
#815 =( NAMED_UNIT ( * ) SI_UNIT ( $, .STERADIAN. ) SOLID_ANGLE_UNIT ( ) );
#816 = ORIENTED_EDGE ( 'NONE', *, *, #337, .F. ) ;
#817 = CARTESIAN_POINT ( 'NONE',  ( -3.399903371514503725, 3.708697878338516940, 10.03721339870031848 ) ) ;
#818 = DIRECTION ( 'NONE',  ( 0.000000000000000000, 0.000000000000000000, -1.000000000000000000 ) ) ;
#819 = DIRECTION ( 'NONE',  ( 0.000000000000000000, 0.000000000000000000, 1.000000000000000000 ) ) ;
#820 = ITEM_DEFINED_TRANSFORMATION ( 'NONE', 'NONE', #213,  #47 ) ;
#821 = AXIS2_PLACEMENT_3D ( 'NONE', #25, #806, #596 ) ;
#822 = CARTESIAN_POINT ( 'NONE',  ( 0.5968284676823745194, 3.347168201569159507, 8.530013797706168077 ) ) ;
#823 = EDGE_LOOP ( 'NONE', ( #415, #585, #592, #305 ) ) ;
#824 = LINE ( 'NONE', #496, #835 ) ;
#825 = AXIS2_PLACEMENT_3D ( 'NONE', #147, #68, #708 ) ;
#826 = DIRECTION ( 'NONE',  ( -0.000000000000000000, -1.000000000000000000, -0.000000000000000000 ) ) ;
#827 = ADVANCED_FACE ( 'NONE', ( #380 ), #463, .T. ) ;
#828 = ORIENTED_EDGE ( 'NONE', *, *, #17, .F. ) ;
#829 = CARTESIAN_POINT ( 'NONE',  ( -2.774464252608503045, 3.569120587336840789, 9.408045430005561371 ) ) ;
#830 = CARTESIAN_POINT ( 'NONE',  ( 0.000000000000000000, 7.045576740875851840, -29.52094453299489984 ) ) ;
#831 = PRODUCT_RELATED_PRODUCT_CATEGORY ( 'part', '', ( #783 ) ) ;
#832 = CARTESIAN_POINT ( 'NONE',  ( 0.000000000000000000, 7.045576740875851840, 29.52094453299467958 ) ) ;
#833 = ORIENTED_EDGE ( 'NONE', *, *, #150, .T. ) ;
#834 = FACE_OUTER_BOUND ( 'NONE', #409, .T. ) ;
#835 = VECTOR ( 'NONE', #479, 1000.000000000000000 ) ;
#836 = ORIENTED_EDGE ( 'NONE', *, *, #539, .T. ) ;
#837 = COLOUR_RGB ( '',0.1019607843137254888, 0.1019607843137254888, 0.1019607843137254888 ) ;
#838 = DIRECTION ( 'NONE',  ( 0.000000000000000000, -0.000000000000000000, 1.000000000000000000 ) ) ;
#839 = CIRCLE ( 'NONE', #588, 5.562615574054281531 ) ;
#840 = AXIS2_PLACEMENT_3D ( 'NONE', #797, #151, #872 ) ;
#841 = CARTESIAN_POINT ( 'NONE',  ( 0.000000000000000000, -3.061616997868437868E-16, 0.000000000000000000 ) ) ;
#842 = UNCERTAINTY_MEASURE_WITH_UNIT (LENGTH_MEASURE( 1.000000000000000082E-05 ), #492, 'distance_accuracy_value', 'NONE');
#843 = VERTEX_POINT ( 'NONE', #237 ) ;
#844 = APPLICATION_CONTEXT ( 'automotive_design' ) ;
#845 = EDGE_CURVE ( 'NONE', #161, #382, #145, .T. ) ;
#846 = DIRECTION ( 'NONE',  ( 0.000000000000000000, -1.000000000000000000, 0.000000000000000000 ) ) ;
#847 = PRODUCT_DEFINITION_SHAPE ( 'NONE', 'NONE',  #936 ) ;
#848 = DIRECTION ( 'NONE',  ( 0.000000000000000000, -1.000000000000000000, -0.000000000000000000 ) ) ;
#849 = STYLED_ITEM ( 'NONE', ( #28 ), #707 ) ;
#850 = CIRCLE ( 'NONE', #406, 2.750000000000000000 ) ;
#851 = DIRECTION ( 'NONE',  ( -0.000000000000000000, -1.000000000000000000, -0.000000000000000000 ) ) ;
#852 = ORIENTED_EDGE ( 'NONE', *, *, #868, .F. ) ;
#853 = CYLINDRICAL_SURFACE ( 'NONE', #70, 2.750000000000000000 ) ;
#854 = STYLED_ITEM ( 'NONE', ( #501 ), #465 ) ;
#855 = CYLINDRICAL_SURFACE ( 'NONE', #517, 2.750000000000000000 ) ;
#856 = VECTOR ( 'NONE', #410, 1000.000000000000000 ) ;
#857 = EDGE_CURVE ( 'NONE', #386, #804, #353, .T. ) ;
#858 = DIRECTION ( 'NONE',  ( 0.000000000000000000, 0.000000000000000000, 1.000000000000000000 ) ) ;
#859 = PRESENTATION_STYLE_ASSIGNMENT (( #800 ) ) ;
#860 = APPLICATION_CONTEXT ( 'automotive_design' ) ;
#861 = EDGE_LOOP ( 'NONE', ( #62, #556, #248, #24 ) ) ;
#862 = EDGE_CURVE ( 'NONE', #723, #770, #886, .T. ) ;
#863 = DIRECTION ( 'NONE',  ( -0.000000000000000000, -1.000000000000000000, -0.000000000000000000 ) ) ;
#864 = SHAPE_REPRESENTATION_RELATIONSHIP ( 'NONE' , 'NONE' ,  #749, #511 ) ;
#865 = CARTESIAN_POINT ( 'NONE',  ( 0.000000000000000000, 0.000000000000000000, 0.000000000000000000 ) ) ;
#866 = AXIS2_PLACEMENT_3D ( 'NONE', #740, #795, #745 ) ;
#867 = CARTESIAN_POINT ( 'NONE',  ( 0.000000000000000000, 0.000000000000000000, 0.000000000000000000 ) ) ;
#868 = EDGE_CURVE ( 'NONE', #723, #257, #716, .T. ) ;
#869 = ORIENTED_EDGE ( 'NONE', *, *, #539, .F. ) ;
#870 =( NAMED_UNIT ( * ) PLANE_ANGLE_UNIT ( ) SI_UNIT ( $, .RADIAN. ) );
#871 = CIRCLE ( 'NONE', #259, 2.999999999999905409 ) ;
#872 = DIRECTION ( 'NONE',  ( 0.000000000000000000, 0.000000000000000000, -1.000000000000000000 ) ) ;
#873 = AXIS2_PLACEMENT_3D ( 'NONE', #283, #354, #581 ) ;
#874 = VECTOR ( 'NONE', #536, 1000.000000000000000 ) ;
#875 = CIRCLE ( 'NONE', #477, 31.99999999999417355 ) ;
#876 = CARTESIAN_POINT ( 'NONE',  ( 0.000000000000000000, 9.999999999912304816, -28.99999999999389289 ) ) ;
#877 = EDGE_LOOP ( 'NONE', ( #208, #398 ) ) ;
#878 = DIRECTION ( 'NONE',  ( 0.000000000000000000, 0.000000000000000000, 1.000000000000000000 ) ) ;
#879 =( NAMED_UNIT ( * ) PLANE_ANGLE_UNIT ( ) SI_UNIT ( $, .RADIAN. ) );
#880 = EDGE_CURVE ( 'NONE', #181, #723, #132, .T. ) ;
#881 = DIRECTION ( 'NONE',  ( 0.000000000000000000, -1.000000000000000000, 0.000000000000000000 ) ) ;
#882 = ORIENTED_EDGE ( 'NONE', *, *, #29, .T. ) ;
#883 = DIRECTION ( 'NONE',  ( 0.000000000000000000, 0.000000000000000000, 1.000000000000000000 ) ) ;
#884 = CARTESIAN_POINT ( 'NONE',  ( 2.200089406107402869E-15, 2.970360041809066765, -6.409242156574772586 ) ) ;
#885 = EDGE_CURVE ( 'NONE', #358, #126, #767, .T. ) ;
#886 = LINE ( 'NONE', #832, #874 ) ;
#887 = ORIENTED_EDGE ( 'NONE', *, *, #320, .T. ) ;
#888 = DIRECTION ( 'NONE',  ( 0.000000000000000000, 0.000000000000000000, -1.000000000000000000 ) ) ;
#889 =( NAMED_UNIT ( * ) PLANE_ANGLE_UNIT ( ) SI_UNIT ( $, .RADIAN. ) );
#890 = CIRCLE ( 'NONE', #491, 5.562615574054281531 ) ;
#891 = CIRCLE ( 'NONE', #218, 27.99999999999451106 ) ;
#892 = DIRECTION ( 'NONE',  ( -0.000000000000000000, -1.000000000000000000, -0.000000000000000000 ) ) ;
#893 = ORIENTED_EDGE ( 'NONE', *, *, #604, .F. ) ;
#894 =( NAMED_UNIT ( * ) SI_UNIT ( $, .STERADIAN. ) SOLID_ANGLE_UNIT ( ) );
#895 = PRODUCT_CONTEXT ( 'NONE', #48, 'mechanical' ) ;
#896 = EDGE_LOOP ( 'NONE', ( #595, #512, #117, #566 ) ) ;
#897 = CARTESIAN_POINT ( 'NONE',  ( -1.172274969764044217, 4.906877335794377792, 17.35469434228671659 ) ) ;
#898 =( REPRESENTATION_RELATIONSHIP ('NONE','NONE', #531, #749 ) REPRESENTATION_RELATIONSHIP_WITH_TRANSFORMATION ( #390 )SHAPE_REPRESENTATION_RELATIONSHIP( ) );
#899 = AXIS2_PLACEMENT_3D ( 'NONE', #411, #619, #416 ) ;
#900 = CONTEXT_DEPENDENT_SHAPE_REPRESENTATION ( #898, #713 ) ;
#901 =( GEOMETRIC_REPRESENTATION_CONTEXT ( 3 ) GLOBAL_UNCERTAINTY_ASSIGNED_CONTEXT ( ( #694 ) ) GLOBAL_UNIT_ASSIGNED_CONTEXT ( ( #525, #460, #815 ) ) REPRESENTATION_CONTEXT ( 'NONE', 'WORKASPACE' ) );
#902 = CARTESIAN_POINT ( 'NONE',  ( 4.353409187958661164, 4.061893182945426339, 11.82372771007146639 ) ) ;
#903 = ORIENTED_EDGE ( 'NONE', *, *, #17, .T. ) ;
#904 = DIRECTION ( 'NONE',  ( 0.000000000000000000, 1.000000000000000000, 0.000000000000000000 ) ) ;
#905 = EDGE_CURVE ( 'NONE', #257, #723, #553, .T. ) ;
#906 = DIRECTION ( 'NONE',  ( 0.000000000000000000, 0.000000000000000000, -1.000000000000000000 ) ) ;
#907 = CARTESIAN_POINT ( 'NONE',  ( 3.061616997868393988E-16, 0.000000000000000000, 2.500000000000009326 ) ) ;
#908 = AXIS2_PLACEMENT_3D ( 'NONE', #330, #199, #269 ) ;
#909 = CARTESIAN_POINT ( 'NONE',  ( 2.759696337868965621, 4.801267621132648600, 16.56666389978776621 ) ) ;
#910 = VERTEX_POINT ( 'NONE', #758 ) ;
#911 = AXIS2_PLACEMENT_3D ( 'NONE', #510, #781, #439 ) ;
#912 = CARTESIAN_POINT ( 'NONE',  ( 0.000000000000000000, 61.99999999992621014, 0.000000000000000000 ) ) ;
#913 = DIRECTION ( 'NONE',  ( 0.000000000000000000, -0.000000000000000000, 1.000000000000000000 ) ) ;
#914 = VERTEX_POINT ( 'NONE', #557 ) ;
#915 = CARTESIAN_POINT ( 'NONE',  ( -3.917041113020425236, 4.613672124822115528, 15.23493635787809097 ) ) ;
#916 = CARTESIAN_POINT ( 'NONE',  ( 4.592425496802586791E-16, 1.999999999978997245, 3.750000000000009326 ) ) ;
#917 = ADVANCED_FACE ( 'NONE', ( #834 ), #45, .T. ) ;
#918 = CARTESIAN_POINT ( 'NONE',  ( 1.457355178108191041, 3.400626644624869854, 8.732099447060146957 ) ) ;
#919 = ORIENTED_EDGE ( 'NONE', *, *, #476, .F. ) ;
#920 = CARTESIAN_POINT ( 'NONE',  ( -4.053793639718575648, 4.575663153753314560, 14.97544388282950756 ) ) ;
#921 = AXIS2_PLACEMENT_3D ( 'NONE', #378, #658, #18 ) ;
#922 = CARTESIAN_POINT ( 'NONE',  ( 0.000000000000000000, 2.970360041809066765, 0.000000000000000000 ) ) ;
#923 = EDGE_LOOP ( 'NONE', ( #483, #44, #488, #919 ) ) ;
#924 = CIRCLE ( 'NONE', #153, 2.999999999999995559 ) ;
#925 = ADVANCED_FACE ( 'NONE', ( #197 ), #180, .T. ) ;
#926 = DIRECTION ( 'NONE',  ( -0.000000000000000000, -1.000000000000000000, -0.000000000000000000 ) ) ;
#927 = AXIS2_PLACEMENT_3D ( 'NONE', #642, #848, #712 ) ;
#928 = STYLED_ITEM ( 'NONE', ( #859 ), #171 ) ;
#929 = SURFACE_STYLE_USAGE ( .BOTH. , #207 ) ;
#930 = EDGE_LOOP ( 'NONE', ( #391, #27, #670, #238 ) ) ;
#931 = EDGE_CURVE ( 'NONE', #734, #257, #824, .T. ) ;
#932 = DIRECTION ( 'NONE',  ( 0.000000000000000000, 0.000000000000000000, -1.000000000000000000 ) ) ;
#933 = DIRECTION ( 'NONE',  ( 0.000000000000000000, 0.000000000000000000, -1.000000000000000000 ) ) ;
#934 = NEXT_ASSEMBLY_USAGE_OCCURRENCE ( 'NAUO1', ' ', ' ', #526, #223, $ ) ;
#935 = NEXT_ASSEMBLY_USAGE_OCCURRENCE ( 'NAUO2', ' ', ' ', #526, #554, $ ) ;
#936 = NEXT_ASSEMBLY_USAGE_OCCURRENCE ( 'NAUO3', ' ', ' ', #554, #772, $ ) ;
ENDSEC;
END-ISO-10303-21;
